<svg width="72" height="70" viewBox="0 0 72 70" fill="none" xmlns="http://www.w3.org/2000/svg">
<g clip-path="url(#clip0_8004_3947)">
<path d="M66.028 12.407C65.5917 10.0142 64.4985 7.78927 62.8662 5.97141C62.863 5.96789 62.86 5.96422 62.8568 5.9607C62.0208 5.0167 60.6354 3.71884 58.7835 2.89642L58.7413 2.87773C56.954 2.02047 55.0359 1.58594 53.0408 1.58594C50.0901 1.58594 47.2991 2.5384 44.9695 4.34061C44.9673 4.34237 44.9568 4.35068 44.9539 4.35276C42.9512 5.91661 41.6295 8.15128 41.4659 8.43596C41.4586 8.44843 41.4514 8.46105 41.4445 8.47367C40.3938 10.4 39.8385 12.5836 39.8385 14.7884C39.8385 15.2462 39.8625 15.7097 39.9101 16.1656C39.9543 16.5917 40.2093 16.9671 40.5887 17.1657C40.829 17.2914 41.0801 17.3961 41.3381 17.4788C42.3666 20.627 44.613 23.1447 47.4688 24.5606C46.2446 25.1859 45.1451 26.0127 44.1941 27.0238C43.7105 27.5379 43.7353 28.3467 44.2495 28.8303C44.7636 29.3137 45.5725 29.2889 46.056 28.7749C46.5131 28.2889 47.0133 27.8572 47.5528 27.4827C48.3265 29.6748 50.3206 31.2806 52.5886 31.2806H52.7794C55.0513 31.2806 57.0434 29.5596 57.7715 27.2308C60.4702 28.9226 62.1969 31.9369 62.1969 35.1613V48.4369L50.5724 55.9797C49.9801 56.364 49.8116 57.1554 50.196 57.7474C50.4407 58.1246 50.8508 58.3299 51.2692 58.3299C51.5077 58.3299 51.7488 58.2633 51.9637 58.1238L64.1705 50.2031C64.5336 49.9675 64.753 49.5639 64.753 49.131V35.1613C64.753 30.6352 62.2262 26.5784 58.233 24.5541C62.0146 22.6667 64.6887 18.8575 64.9507 14.4209C65.3115 14.0939 65.6251 13.7097 65.8759 13.2775C66.0288 13.0149 66.0826 12.7061 66.028 12.407ZM52.7795 28.7247H52.5888C51.0593 28.7247 49.767 27.2421 49.767 25.4872C49.767 25.4653 49.7665 25.4436 49.7654 25.4219C50.7564 25.6824 51.7929 25.8203 52.8557 25.8203C53.7641 25.8203 54.6506 25.719 55.5032 25.5272C55.4032 27.2551 54.1734 28.7247 52.7795 28.7247ZM52.8556 23.2642C49.0018 23.2642 45.5848 20.9685 44.0879 17.5274C45.8624 17.0254 47.2199 15.5199 47.5062 13.6656C48.2687 13.7635 49.0414 13.8129 49.8167 13.8129C52.4163 13.8129 54.9206 13.268 57.1634 12.2244C57.7414 14.2094 59.5773 15.6641 61.7465 15.6641C61.9047 15.6641 62.0619 15.6561 62.2176 15.6405C61.3164 19.9827 57.4494 23.2642 52.8556 23.2642ZM61.7465 13.1082C60.5245 13.1082 59.5304 12.1144 59.5304 10.8925V10.1813C59.5304 9.71625 59.2778 9.28794 58.8707 9.06285C58.4635 8.83759 57.9664 8.85149 57.5727 9.09895C55.3238 10.5107 52.6418 11.2569 49.8165 11.2569C48.7117 11.2569 47.6141 11.1405 46.5545 10.9107C46.177 10.8288 45.7824 10.9223 45.4814 11.1649C45.1806 11.4076 45.0057 11.7733 45.0057 12.1597V12.935C45.0057 14.1567 44.0116 15.1507 42.7898 15.1507C42.7061 15.1507 42.6234 15.146 42.5416 15.1369C42.5226 15.1341 42.5036 15.1317 42.4845 15.1298C42.4559 15.1259 42.4277 15.1213 42.3994 15.1163C42.396 15.0067 42.3943 14.8975 42.3943 14.7885C42.3943 13.0152 42.8392 11.2598 43.6811 9.71098C43.6845 9.70475 43.688 9.69868 43.6907 9.69405C43.7016 9.6744 44.856 7.67313 46.5249 6.36904C46.5283 6.36632 46.5326 6.36313 46.5334 6.36249C48.4112 4.90983 50.6613 4.14204 53.0408 4.14204C54.6503 4.14204 56.1964 4.49206 57.636 5.18237C57.6609 5.19435 57.6978 5.21113 57.7461 5.23237C59.1674 5.86373 60.2587 6.88553 60.9281 7.63814C60.9354 7.64677 60.9429 7.65524 60.9506 7.66386C62.1568 9.00214 62.9996 10.6144 63.4067 12.3533C62.9886 12.8269 62.3841 13.1082 61.7465 13.1082ZM41.9704 45.8077C44.8665 44.1036 46.8146 40.9534 46.8146 37.3571C46.8146 35.7388 46.42 34.2106 45.7223 32.864C45.6972 32.8074 45.6686 32.7536 45.6367 32.7025C43.9775 29.6425 40.736 27.5597 37.0172 27.5597C33.2976 27.5597 30.0555 29.6431 28.3968 32.7045C28.3658 32.7544 28.3378 32.8069 28.3134 32.8619C27.6148 34.209 27.22 35.7378 27.22 37.3571C27.22 40.9527 29.1671 44.1023 32.0624 45.8066C28.4786 47.6593 26.2084 51.3369 26.2084 55.4069V60.0682C26.2084 60.5052 26.4316 60.9117 26.8002 61.1464L36.331 67.214C36.5405 67.3472 36.7788 67.4138 37.0174 67.4138C37.2544 67.4138 37.4915 67.348 37.7 67.2162L47.2534 61.1804C47.626 60.9451 47.8509 60.5345 47.8488 60.0939L47.8263 55.4008C47.8068 51.3212 45.5391 47.6558 41.9704 45.8077ZM37.0172 30.1158C39.2418 30.1158 41.2349 31.1239 42.5644 32.7074C40.8422 33.2009 38.9536 33.4583 37.0175 33.4583C35.0808 33.4583 33.192 33.2009 31.47 32.7074C32.7995 31.1239 34.7928 30.1158 37.0172 30.1158ZM29.7759 37.3571C29.7759 36.5269 29.9164 35.7286 30.1748 34.9852C32.2838 35.6607 34.6241 36.0144 37.0175 36.0144C39.4104 36.0144 41.7503 35.6607 43.8596 34.9852C44.118 35.7286 44.2585 36.5269 44.2585 37.3571C44.2585 41.3499 41.0101 44.5984 37.0172 44.5984C33.0244 44.5984 29.7759 41.3499 29.7759 37.3571ZM39.2857 46.8895C39.126 48.0985 38.0655 48.9158 37.106 48.9158H36.9504C35.9342 48.9158 34.8057 48.0563 34.6595 46.8677C35.4148 47.055 36.2047 47.1545 37.017 47.1545C37.7976 47.1545 38.5574 47.0626 39.2857 46.8895ZM37.0199 64.6225L28.7644 59.3669V55.407C28.7644 52.5967 30.1843 50.0307 32.4827 48.5185C33.2813 50.3408 35.1639 51.4719 36.9504 51.4719H37.106C39.0348 51.4719 40.7397 50.2167 41.4762 48.4728C43.8078 49.9761 45.2565 52.5622 45.27 55.4131L45.2892 59.398L37.0199 64.6225ZM27.8398 30.3168C28.2124 29.7173 28.0284 28.9292 27.429 28.5566C27.0398 28.3148 26.6362 28.0954 26.2222 27.9002C27.8015 27.0928 29.1986 25.9363 30.3076 24.4897C30.7643 24.6482 31.2546 24.7345 31.7646 24.7345C34.2205 24.7345 36.2186 22.7364 36.2186 20.2805V17.1043C36.2186 13.067 34.6763 9.24321 31.8759 6.33773C29.0835 3.44071 25.3347 1.75784 21.32 1.59904C21.3197 1.59904 21.3192 1.59904 21.3189 1.59904C20.97 1.58562 20.6452 1.58242 20.3259 1.59025C16.3291 1.68674 12.559 3.30444 9.71007 6.14522C6.78925 9.05758 5.18066 12.9497 5.18066 17.1045V20.2806C5.18066 22.7365 7.17874 24.7346 9.63483 24.7346C10.1448 24.7346 10.6349 24.6485 11.0915 24.49C12.3131 26.0834 13.8845 27.3249 15.664 28.1355C11.7204 30.2095 9.28129 34.2241 9.28129 38.6698V49.1313C9.28129 49.5642 9.50047 49.9678 9.86376 50.2034L21.4581 57.7265C21.6729 57.866 21.914 57.9326 22.1525 57.9326C22.5709 57.9326 22.9812 57.7272 23.2258 57.3501C23.61 56.7579 23.4414 55.9665 22.8494 55.5824L11.8374 48.4372V38.6698C11.8374 35.7127 13.2143 32.9977 15.521 31.2456C16.3122 33.5413 18.3436 35.2662 20.5898 35.2662H20.7805C23.22 35.2662 25.1671 33.0581 25.8528 30.5911C25.929 30.6355 26.0046 30.6811 26.0795 30.7275C26.6792 31.1004 27.4673 30.9162 27.8398 30.3168ZM12.7958 12.4594C11.9695 13.8627 11.5327 15.4689 11.5327 17.1045V20.2806C11.5327 20.8861 11.2477 21.4262 10.8047 21.774C10.7667 21.7988 10.7304 21.8253 10.6959 21.8534C10.3929 22.0587 10.0275 22.1785 9.63467 22.1785C8.5881 22.1785 7.73676 21.3272 7.73676 20.2806V17.1043C7.73676 10.0091 13.2937 4.31697 20.3871 4.14539C20.6523 4.13884 20.9246 4.14172 21.2199 4.15306C28.1969 4.4296 33.6623 10.1184 33.6623 17.1043V20.2805C33.6623 21.327 32.8108 22.1784 31.7643 22.1784C31.3714 22.1784 31.0059 22.0584 30.7027 21.8531C30.6683 21.8251 30.6322 21.7988 30.5944 21.774C30.1514 21.4262 29.8662 20.8859 29.8662 20.2805V17.1043C29.8662 12.5931 26.5056 8.69477 22.049 8.03641C21.6987 7.98433 21.3426 8.08051 21.0657 8.30129C20.7888 8.52207 20.6158 8.84766 20.588 9.20072C20.5179 10.0941 20.3559 10.975 20.1052 11.8298H13.897C13.4444 11.8298 13.0253 12.0693 12.7958 12.4594ZM20.7805 32.7101H20.5898C19.145 32.7101 17.7268 30.9562 17.7268 29.169C17.7268 29.0587 17.7126 28.9503 17.6854 28.8463C18.6561 29.0931 19.6669 29.2217 20.6997 29.2217C21.6774 29.2217 22.6356 29.1063 23.5585 28.8848C23.4716 30.7432 22.0651 32.7101 20.7805 32.7101ZM20.6997 26.6656C17.7209 26.6656 14.9716 25.3094 13.1654 22.9928C13.7441 22.2411 14.0887 21.3002 14.0887 20.2805V17.1043C14.0887 16.1629 14.289 15.2355 14.6721 14.3859H21.0277C21.5627 14.3859 22.041 14.0528 22.2265 13.5509C22.546 12.6866 22.7871 11.795 22.9475 10.8869C25.5063 11.8183 27.3103 14.2966 27.3103 17.1043V20.2805C27.3103 21.3002 27.6549 22.2411 28.2336 22.9928C26.4276 25.3096 23.6785 26.6656 20.6997 26.6656Z" fill="#DC3545"/>
</g>
<defs>
<clipPath id="clip0_8004_3947">
<rect width="65.828" height="65.828" fill="white" transform="translate(2.70068 1.58594)"/>
</clipPath>
</defs>
</svg>
