<svg width="72" height="70" viewBox="0 0 72 70" fill="none" xmlns="http://www.w3.org/2000/svg">
<g clip-path="url(#clip0_8004_3948)">
<g clip-path="url(#clip1_8004_3948)">
<path d="M70.5418 41.5916C70.5455 41.5502 70.5669 41.5138 70.5669 41.4699C70.5669 41.382 70.5581 41.2941 70.5405 41.2113C70.4539 34.2429 66.8461 30.1581 61.5724 27.7579V24.0697C61.5724 16.8917 56.2523 12.606 47.3394 12.606C40.6661 12.606 36.0075 15.0099 34.0881 19.2316C31.9101 15.6564 27.4926 13.6429 21.3854 13.6429C12.4737 13.6429 7.15364 17.9286 7.15364 25.1066V28.4709C3.12401 30.9765 0.566895 34.9999 0.566895 41.4686V47.6737V47.6763V54.8831C0.566895 56.2678 1.69293 57.3938 3.07756 57.3938H6.40922C7.79386 57.3938 8.91989 56.2678 8.91989 54.8831V48.9291H62.19V54.8831C62.19 56.2678 63.3161 57.3938 64.7007 57.3938H68.0311C69.4157 57.3938 70.5418 56.2678 70.5418 54.8831V47.6763V47.6737V41.5916ZM3.07882 46.4209V42.7252H68.0311V46.4197L3.07882 46.4209ZM35.6196 24.0697C35.6196 15.9891 43.8157 15.1166 47.3407 15.1166C50.8657 15.1166 59.063 15.9891 59.063 24.0697V26.7762C52.1725 24.4752 43.2834 24.3471 35.5845 24.3408C35.582 24.3157 35.582 24.2906 35.5807 24.2655C35.5907 24.199 35.6196 24.14 35.6196 24.0697ZM9.66556 25.1078C9.66556 17.026 17.8629 16.1548 21.3866 16.1548C24.7936 16.1548 32.5428 16.9908 33.0587 24.3408C24.7384 24.3459 15.9887 24.4789 9.66556 27.1817V25.1078ZM34.2802 26.8515C43.2859 26.8515 52.9721 26.8553 59.648 29.553C59.7723 29.6321 59.9041 29.686 60.0522 29.7199C64.5363 31.6419 67.5792 34.8492 67.9834 40.2158H3.11774C3.90483 27.8344 16.5912 26.8515 34.2802 26.8515ZM3.07882 54.8856V48.9341H6.40922L6.41048 54.8856H3.07882ZM64.7007 54.8856V48.9341H68.0311L68.0336 54.8856H64.7007Z" fill="#DC3545"/>
</g>
</g>
<defs>
<clipPath id="clip0_8004_3948">
<rect width="70.8917" height="70" fill="white" transform="translate(0.566895)"/>
</clipPath>
<clipPath id="clip1_8004_3948">
<rect width="70" height="70" fill="white" transform="translate(0.566895)"/>
</clipPath>
</defs>
</svg>
