<svg width="71" height="70" viewBox="0 0 71 70" fill="none" xmlns="http://www.w3.org/2000/svg">
<g clip-path="url(#clip0_8004_3944)">
<path d="M36.7825 33.829C36.7683 33.8146 36.7515 33.8031 36.733 33.7953C36.7145 33.7875 36.6947 33.7834 36.6747 33.7834C36.6547 33.7834 36.6348 33.7875 36.6163 33.7953C36.5979 33.8031 36.581 33.8146 36.5669 33.829L34.4325 36.0071C34.418 36.0214 34.4064 36.0386 34.3984 36.0576C34.3904 36.0766 34.3862 36.097 34.386 36.1176C34.3858 36.1383 34.3897 36.1588 34.3973 36.1779C34.405 36.197 34.4163 36.2144 34.4306 36.229C34.445 36.2436 34.462 36.2552 34.4807 36.263C34.4994 36.2708 34.5195 36.2747 34.5398 36.2746C34.56 36.2744 34.58 36.2701 34.5986 36.2619C34.6172 36.2538 34.634 36.2419 34.6481 36.2271L36.7825 34.049C36.7966 34.0346 36.8079 34.0174 36.8155 33.9986C36.8232 33.9797 36.8271 33.9595 36.8271 33.939C36.8271 33.9186 36.8232 33.8984 36.8155 33.8795C36.8079 33.8606 36.7966 33.8435 36.7825 33.829Z" fill="#DC3545"/>
<path d="M34.8452 34.8725C34.9658 34.8725 35.0837 34.836 35.184 34.7677C35.2843 34.6993 35.3624 34.6021 35.4086 34.4884C35.4547 34.3747 35.4668 34.2495 35.4433 34.1288C35.4197 34.0081 35.3617 33.8972 35.2764 33.8102C35.1911 33.7232 35.0824 33.6639 34.9641 33.6399C34.8458 33.6159 34.7232 33.6282 34.6118 33.6753C34.5004 33.7224 34.4051 33.8022 34.3381 33.9045C34.2711 34.0068 34.2354 34.1272 34.2354 34.2502C34.2355 34.4152 34.2998 34.5734 34.4142 34.6901C34.5285 34.8067 34.6835 34.8723 34.8452 34.8725ZM34.8452 33.9391C34.9055 33.9391 34.9644 33.9573 35.0146 33.9915C35.0647 34.0257 35.1038 34.0743 35.1269 34.1312C35.15 34.188 35.156 34.2506 35.1442 34.3109C35.1325 34.3713 35.1034 34.4267 35.0608 34.4702C35.0181 34.5138 34.9638 34.5434 34.9047 34.5554C34.8455 34.5674 34.7842 34.5612 34.7285 34.5377C34.6728 34.5141 34.6252 34.4743 34.5916 34.4231C34.5581 34.3719 34.5403 34.3118 34.5403 34.2502C34.5403 34.1677 34.5725 34.0886 34.6297 34.0303C34.6868 33.972 34.7643 33.9392 34.8452 33.9391Z" fill="#DC3545"/>
<path d="M36.3696 35.1836C36.249 35.1836 36.1311 35.2201 36.0308 35.2885C35.9305 35.3568 35.8523 35.454 35.8062 35.5678C35.76 35.6815 35.748 35.8066 35.7715 35.9273C35.795 36.048 35.8531 36.1589 35.9384 36.2459C36.0237 36.333 36.1323 36.3922 36.2506 36.4162C36.3689 36.4403 36.4915 36.4279 36.603 36.3808C36.7144 36.3337 36.8096 36.254 36.8766 36.1516C36.9436 36.0493 36.9794 35.929 36.9794 35.8059C36.9792 35.6409 36.9149 35.4827 36.8006 35.3661C36.6863 35.2494 36.5313 35.1838 36.3696 35.1836ZM36.3696 36.117C36.3093 36.117 36.2503 36.0988 36.2002 36.0646C36.15 36.0304 36.111 35.9818 36.0879 35.925C36.0648 35.8681 36.0588 35.8055 36.0705 35.7452C36.0823 35.6848 36.1113 35.6294 36.154 35.5859C36.1966 35.5424 36.251 35.5127 36.3101 35.5007C36.3692 35.4887 36.4306 35.4949 36.4863 35.5184C36.542 35.542 36.5896 35.5819 36.6231 35.633C36.6566 35.6842 36.6745 35.7444 36.6745 35.8059C36.6744 35.8884 36.6423 35.9675 36.5851 36.0258C36.5279 36.0842 36.4504 36.117 36.3696 36.117Z" fill="#DC3545"/>
<path d="M39.9089 34.0975C39.7828 33.9878 39.6891 33.8444 39.6383 33.6835C39.5876 33.5225 39.5818 33.3502 39.6216 33.1861C39.6638 33.0144 39.6686 32.8354 39.6356 32.6617C39.6027 32.4879 39.5329 32.3236 39.4311 32.1804C39.3293 32.0371 39.198 31.9184 39.0464 31.8324C38.8947 31.7465 38.7265 31.6956 38.5535 31.6831C38.389 31.6706 38.2311 31.6114 38.0978 31.512C37.9646 31.4126 37.8612 31.2772 37.7995 31.121C37.7355 30.9567 37.6368 30.8088 37.5105 30.6877C37.3841 30.5667 37.2332 30.4756 37.0685 30.4207C36.9038 30.3659 36.7292 30.3487 36.5573 30.3705C36.3853 30.3922 36.2201 30.4523 36.0735 30.5465C35.9337 30.6356 35.7722 30.6829 35.6073 30.6828C35.4425 30.6828 35.281 30.6355 35.1412 30.5463C34.9946 30.4522 34.8294 30.3922 34.6575 30.3705C34.4856 30.3488 34.3111 30.366 34.1464 30.4208C33.9817 30.4756 33.8308 30.5668 33.7045 30.6878C33.5782 30.8088 33.4795 30.9566 33.4155 31.1209C33.3536 31.2774 33.25 31.413 33.1164 31.5124C32.9828 31.6119 32.8246 31.6711 32.6597 31.6834C32.4866 31.6961 32.3185 31.7473 32.167 31.8335C32.0154 31.9197 31.8843 32.0387 31.7827 32.1822C31.6811 32.3256 31.6116 32.4901 31.579 32.6639C31.5464 32.8378 31.5515 33.0168 31.594 33.1884C31.6334 33.3528 31.6271 33.5251 31.5758 33.686C31.5246 33.8469 31.4304 33.9901 31.3039 34.0994C31.1713 34.2137 31.0648 34.3561 30.9918 34.5168C30.9189 34.6774 30.8811 34.8524 30.8813 35.0295C30.8816 35.2066 30.9197 35.3815 30.993 35.5419C31.0664 35.7024 31.1732 35.8446 31.3061 35.9585C31.4322 36.0682 31.5259 36.2116 31.5766 36.3726C31.6273 36.5335 31.6331 36.7058 31.5933 36.8699C31.5512 37.0416 31.5464 37.2206 31.5793 37.3943C31.6122 37.5681 31.682 37.7324 31.7838 37.8756C31.8856 38.0189 32.017 38.1376 32.1686 38.2235C32.3202 38.3094 32.4884 38.3604 32.6614 38.3729C32.826 38.3854 32.9838 38.4446 33.1171 38.544C33.2504 38.6433 33.3537 38.7788 33.4154 38.935C33.4794 39.0993 33.5781 39.2472 33.7045 39.3682C33.8308 39.4893 33.9817 39.5804 34.1464 39.6353C34.3112 39.6901 34.4857 39.7073 34.6577 39.6855C34.8296 39.6638 34.9948 39.6037 35.1415 39.5095C35.2812 39.4204 35.4427 39.3731 35.6075 39.3731C35.7723 39.3731 35.9337 39.4204 36.0735 39.5095L36.1549 39.378L36.0737 39.5097C36.2203 39.6038 36.3855 39.6638 36.5574 39.6855C36.7294 39.7072 36.9039 39.69 37.0686 39.6352C37.2333 39.5803 37.3841 39.4892 37.5104 39.3682C37.6368 39.2472 37.7354 39.0993 37.7995 38.9351C37.8613 38.7786 37.965 38.643 38.0985 38.5435C38.2321 38.4441 38.3904 38.3849 38.5553 38.3726C38.7283 38.3599 38.8965 38.3087 39.048 38.2225C39.1995 38.1363 39.3307 38.0173 39.4322 37.8738C39.5338 37.7304 39.6034 37.5659 39.636 37.392C39.6686 37.2182 39.6634 37.0392 39.6209 36.8675C39.5816 36.7032 39.5879 36.5309 39.6391 36.37C39.6903 36.2091 39.7845 36.0659 39.911 35.9566C40.0436 35.8423 40.1501 35.6999 40.2231 35.5392C40.2961 35.3786 40.3338 35.2036 40.3336 35.0265C40.3334 34.8494 40.2953 34.6745 40.2219 34.5141C40.1485 34.3536 40.0417 34.2114 39.9089 34.0975ZM39.7124 35.7206C39.5428 35.8679 39.4169 36.0604 39.3485 36.2767C39.2802 36.4929 39.2723 36.7243 39.3256 36.9449C39.357 37.0725 39.3606 37.2055 39.3363 37.3347C39.3119 37.4639 39.2601 37.586 39.1845 37.6925C39.1088 37.799 39.0113 37.8873 38.8986 37.9512C38.786 38.0151 38.661 38.0531 38.5324 38.0624C38.3107 38.0791 38.098 38.1589 37.9184 38.2927C37.7389 38.4265 37.5996 38.6089 37.5165 38.8194C37.4691 38.9413 37.3959 39.0511 37.3022 39.141C37.2085 39.2309 37.0965 39.2986 36.9743 39.3393C36.8521 39.3801 36.7225 39.3928 36.5949 39.3767C36.4673 39.3607 36.3447 39.3161 36.2359 39.2462C36.0474 39.126 35.8296 39.0622 35.6073 39.0622C35.3851 39.0622 35.1673 39.126 34.9788 39.2463C34.87 39.3162 34.7474 39.3607 34.6198 39.3768C34.4922 39.3929 34.3627 39.3801 34.2405 39.3393C34.1183 39.2986 34.0063 39.2309 33.9127 39.141C33.819 39.0511 33.7458 38.9413 33.6984 38.8194C33.6151 38.6087 33.4756 38.4262 33.2957 38.2924C33.1158 38.1585 32.9028 38.0789 32.6807 38.0624C32.553 38.0534 32.4288 38.0159 32.3168 37.9525C32.2048 37.8891 32.1078 37.8014 32.0327 37.6956C31.9562 37.5885 31.9038 37.4655 31.8792 37.3353C31.8545 37.2052 31.8582 37.0712 31.89 36.9426C31.9428 36.7218 31.9344 36.4904 31.8656 36.2742C31.7967 36.0581 31.6703 35.8657 31.5004 35.7187C31.4018 35.6337 31.3226 35.5277 31.2683 35.4081C31.2141 35.2886 31.1861 35.1584 31.1863 35.0266C31.1865 34.8949 31.2149 34.7647 31.2695 34.6454C31.3242 34.526 31.4037 34.4202 31.5026 34.3355C31.6721 34.1882 31.7981 33.9956 31.8664 33.7794C31.9347 33.5631 31.9427 33.3317 31.8894 33.1111C31.8579 32.9836 31.8543 32.8505 31.8787 32.7214C31.9031 32.5922 31.9549 32.4701 32.0305 32.3636C32.1061 32.257 32.2037 32.1687 32.3163 32.1048C32.429 32.0409 32.554 32.003 32.6825 31.9937C32.9043 31.9769 33.117 31.8971 33.2965 31.7633C33.4761 31.6295 33.6153 31.4471 33.6984 31.2366C33.7458 31.1146 33.8189 31.0047 33.9126 30.9147C34.0063 30.8248 34.1182 30.757 34.2405 30.7163C34.3628 30.6755 34.4923 30.6628 34.62 30.6789C34.7476 30.6951 34.8702 30.7398 34.979 30.8098C35.1675 30.9301 35.3853 30.9939 35.6076 30.9939C35.8299 30.9939 36.0477 30.9301 36.2361 30.8098C36.345 30.7399 36.4675 30.6953 36.5951 30.6793C36.7227 30.6632 36.8522 30.676 36.9744 30.7167C37.0967 30.7575 37.2086 30.8252 37.3023 30.915C37.3959 31.0049 37.4691 31.1147 37.5165 31.2366C37.5998 31.4473 37.7394 31.6298 37.9193 31.7636C38.0991 31.8974 38.3122 31.9771 38.5342 31.9936C38.6619 32.0026 38.7862 32.0401 38.8982 32.1035C39.0101 32.1669 39.1071 32.2546 39.1823 32.3604C39.2587 32.4675 39.3111 32.5905 39.3358 32.7206C39.3604 32.8508 39.3567 32.9848 39.325 33.1133C39.2721 33.3342 39.2806 33.5656 39.3494 33.7818C39.4182 33.998 39.5447 34.1904 39.7146 34.3373C39.8132 34.4224 39.8924 34.5284 39.9467 34.6479C40.0009 34.7675 40.0289 34.8977 40.0287 35.0295C40.0285 35.1612 40.0001 35.2913 39.9455 35.4107C39.8908 35.5301 39.8112 35.6358 39.7124 35.7206Z" fill="#DC3545"/>
<path d="M35.6075 31.9165C35.0044 31.9165 34.4149 32.099 33.9135 32.4409C33.412 32.7828 33.0212 33.2687 32.7905 33.8373C32.5597 34.4058 32.4993 35.0315 32.6169 35.635C32.7346 36.2386 33.025 36.793 33.4514 37.2282C33.8778 37.6633 34.4211 37.9597 35.0126 38.0797C35.6041 38.1998 36.2171 38.1382 36.7743 37.9027C37.3314 37.6672 37.8076 37.2684 38.1427 36.7567C38.4777 36.245 38.6566 35.6434 38.6566 35.028C38.6556 34.2031 38.3341 33.4122 37.7625 32.8289C37.1909 32.2456 36.4158 31.9175 35.6075 31.9165ZM35.6075 37.8284C35.0647 37.8284 34.5341 37.6641 34.0829 37.3564C33.6316 37.0487 33.2799 36.6114 33.0722 36.0997C32.8644 35.588 32.8101 35.0249 32.916 34.4817C33.0219 33.9385 33.2832 33.4395 33.667 33.0479C34.0508 32.6562 34.5398 32.3895 35.0721 32.2815C35.6044 32.1734 36.1562 32.2289 36.6576 32.4408C37.159 32.6528 37.5876 33.0117 37.8892 33.4722C38.1907 33.9327 38.3516 34.4742 38.3516 35.028C38.3508 35.7705 38.0615 36.4823 37.547 37.0073C37.0325 37.5322 36.335 37.8275 35.6075 37.8284Z" fill="#DC3545"/>
<g clip-path="url(#clip1_8004_3944)">
<path d="M68.5287 33.8499H69.7102C70.3627 33.8499 70.8917 33.3276 70.8917 32.6833V28.0166C70.8917 27.3723 70.3627 26.8499 69.7102 26.8499H68.5287C68.5206 24.7285 67.0644 22.8794 64.9841 22.349V21.0166C64.9841 20.3723 64.455 19.8499 63.8025 19.8499C63.15 19.8499 62.621 20.3723 62.621 21.0166V22.349C60.5406 22.8794 59.0845 24.7285 59.0764 26.8499H51.9873V21.0166C51.9798 19.2791 50.6828 17.8094 48.94 17.5656C49.3836 16.8478 49.6202 16.0241 49.6242 15.1833V11.6833C49.6242 9.10612 47.5081 7.0166 44.8981 7.0166C42.2881 7.0166 40.172 9.10612 40.172 11.6833H38.9904C38.3379 11.6833 37.8089 12.2056 37.8089 12.8499C37.8089 13.4942 38.3379 14.0166 38.9904 14.0166H40.172V15.1833C40.176 16.0241 40.4125 16.8478 40.8562 17.5656C39.1133 17.8094 37.8164 19.2791 37.8089 21.0166V26.8499H35.4459V21.0166C35.4384 19.2791 34.1414 17.8094 32.3986 17.5656C32.8422 16.8478 33.0788 16.0241 33.0828 15.1833V11.6833C33.0828 9.10612 30.9667 7.0166 28.3567 7.0166C28.3653 5.20622 26.9744 3.68807 25.149 3.51603C23.3242 3.34399 21.6673 4.57446 21.3287 6.35408C20.99 8.13314 22.0815 9.87402 23.8458 10.3673C23.7096 10.7935 23.6369 11.2367 23.6306 11.6833V15.1833C23.6346 16.0241 23.8711 16.8478 24.3148 17.5656C22.5719 17.8094 21.275 19.2791 21.2675 21.0166V26.8499H14.1783V24.5166H17.7229C18.3754 24.5166 18.9045 23.9942 18.9045 23.3499V14.0166C18.9045 13.3723 18.3754 12.8499 17.7229 12.8499H3.54459C2.89209 12.8499 2.36306 13.3723 2.36306 14.0166V23.3499C2.36306 23.9942 2.89209 24.5166 3.54459 24.5166H7.08917V26.8499H1.18153C0.529034 26.8499 0 27.3723 0 28.0166V32.6833C0 33.3276 0.529034 33.8499 1.18153 33.8499H2.36306V56.0166C2.36306 56.6609 2.89209 57.1833 3.54459 57.1833H37.8089V59.7314C36.1826 60.297 35.2064 61.9388 35.4984 63.6165C35.7909 65.2947 37.266 66.52 38.9904 66.5166H51.9873V57.1833H54.3503V63.0166C54.3503 64.95 55.9374 66.5166 57.8949 66.5166H67.3471C69.3046 66.5166 70.8917 64.95 70.8917 63.0166V46.6833C70.8854 45.2056 69.9398 43.8908 68.5287 43.398V33.8499ZM44.8981 9.34993C46.2031 9.34993 47.2611 10.3947 47.2611 11.6833H42.535C42.535 10.3947 43.5931 9.34993 44.8981 9.34993ZM42.535 14.0166H47.2611V15.1833C47.2611 16.4718 46.2031 17.5166 44.8981 17.5166C43.5931 17.5166 42.535 16.4718 42.535 15.1833V14.0166ZM28.3567 9.34993C29.6617 9.34993 30.7197 10.3947 30.7197 11.6833H25.9936C25.9936 10.3947 27.0517 9.34993 28.3567 9.34993ZM30.7197 14.0166V15.1833C30.7197 16.4718 29.6617 17.5166 28.3567 17.5166C27.0517 17.5166 25.9936 16.4718 25.9936 15.1833V14.0166H30.7197ZM23.6306 7.0166C23.6306 6.37231 24.1596 5.84993 24.8121 5.84993C25.4646 5.84993 25.9936 6.37231 25.9936 7.0166C25.9936 7.66089 25.4646 8.18327 24.8121 8.18327C24.1596 8.18327 23.6306 7.66089 23.6306 7.0166ZM23.6306 21.0166C23.6306 20.3723 24.1596 19.8499 24.8121 19.8499H31.9013C32.5538 19.8499 33.0828 20.3723 33.0828 21.0166V26.8499H23.6306V21.0166ZM4.72611 22.1833V15.1833H16.5414V22.1833H14.1783V18.6833C14.1783 18.039 13.6493 17.5166 12.9968 17.5166H8.2707C7.61821 17.5166 7.08917 18.039 7.08917 18.6833V22.1833H4.72611ZM11.8153 19.8499V26.8499H9.45223V19.8499H11.8153ZM2.36306 31.5166V29.1833H37.8089V31.5166H2.36306ZM4.72611 54.8499V33.8499H37.8089V54.8499H4.72611ZM43.7166 64.1833H38.9904C38.3379 64.1833 37.8089 63.6609 37.8089 63.0166C37.8089 62.3723 38.3379 61.8499 38.9904 61.8499H43.7166V64.1833ZM49.6242 64.1833H46.0796V61.8499H49.6242V64.1833ZM49.6242 56.0166V59.5166H46.0796V36.1833C46.0796 35.539 45.5506 35.0166 44.8981 35.0166C44.2456 35.0166 43.7166 35.539 43.7166 36.1833V59.5166H40.172V33.8499H49.6242V56.0166ZM49.6242 28.0166V31.5166H40.172V21.0166C40.172 20.3723 40.701 19.8499 41.3535 19.8499H48.4427C49.0952 19.8499 49.6242 20.3723 49.6242 21.0166V28.0166ZM63.8025 24.5166C65.1075 24.5166 66.1656 25.5614 66.1656 26.8499H61.4395C61.4395 25.5614 62.4976 24.5166 63.8025 24.5166ZM56.4065 43.5182C56.2755 43.5786 56.148 43.647 56.0257 43.7222C55.968 43.7586 55.9074 43.7922 55.8543 43.831C55.7147 43.929 55.5826 44.0372 55.4586 44.154C55.4326 44.1785 55.4032 44.1984 55.3784 44.224C55.2336 44.3682 55.102 44.5242 54.9849 44.6906C54.9515 44.7373 54.9255 44.7874 54.8949 44.8364C54.8142 44.9635 54.7415 45.0956 54.6774 45.2323C54.648 45.2961 54.6209 45.3605 54.5961 45.426C54.543 45.5633 54.4986 45.704 54.464 45.847C54.4484 45.9114 54.4294 45.9729 54.4167 46.0384C54.374 46.2509 54.352 46.4668 54.3503 46.6833V54.8499H51.9873V33.8499H66.1656V36.3832C66.0664 36.3479 65.9602 36.3291 65.8558 36.3023C65.7866 36.2847 65.7202 36.263 65.6493 36.2488C65.43 36.2061 65.2073 36.1844 64.9841 36.1833H60.258C58.3005 36.1833 56.7134 37.7504 56.7134 39.6833V43.3832C56.673 43.3969 56.6378 43.418 56.5951 43.4333C56.5328 43.459 56.4699 43.4892 56.4065 43.5182ZM66.1656 39.6833V43.1833H59.0764V39.6833C59.0764 39.039 59.6055 38.5166 60.258 38.5166H64.9841C65.6366 38.5166 66.1656 39.039 66.1656 39.6833ZM68.5287 63.0166C68.5287 63.6609 67.9996 64.1833 67.3471 64.1833H57.8949C57.2424 64.1833 56.7134 63.6609 56.7134 63.0166V46.6833C56.7134 46.039 57.2424 45.5166 57.8949 45.5166H67.3471C67.9996 45.5166 68.5287 46.039 68.5287 46.6833V63.0166ZM67.3471 31.5166H51.9873V29.1833H68.5287V31.5166H67.3471Z" fill="#DC3545"/>
<path d="M59.0764 56.0166V61.8499H61.4395V49.0166H59.0764V56.0166Z" fill="#DC3545"/>
<path d="M63.8025 56.0166V61.8499H66.1656V49.0166H63.8025V56.0166Z" fill="#DC3545"/>
</g>
</g>
<defs>
<clipPath id="clip0_8004_3944">
<rect width="70.8917" height="70" fill="white"/>
</clipPath>
<clipPath id="clip1_8004_3944">
<rect width="70.8917" height="70" fill="white"/>
</clipPath>
</defs>
</svg>
