<svg width="72" height="70" viewBox="0 0 72 70" fill="none" xmlns="http://www.w3.org/2000/svg">
<g clip-path="url(#clip0_8004_3951)">
<g clip-path="url(#clip1_8004_3951)">
<path d="M67.8667 23.3333V29.1667H60.5751V17.5C60.5751 17.1132 60.4214 16.7423 60.1479 16.4688C59.8745 16.1953 59.5035 16.0417 59.1167 16.0417H57.6584V5.83333C57.6584 5.44656 57.5048 5.07563 57.2313 4.80214C56.9578 4.52865 56.5869 4.375 56.2001 4.375H47.4501C47.0633 4.375 46.6924 4.52865 46.4189 4.80214C46.1454 5.07563 45.9917 5.44656 45.9917 5.83333C45.9917 6.22011 46.1454 6.59104 46.4189 6.86453C46.6924 7.13802 47.0633 7.29167 47.4501 7.29167H54.7417V10.2083H47.4501C45.7691 10.208 44.1397 10.7884 42.8375 11.8514C41.5353 12.9144 40.6404 14.3947 40.3042 16.0417H10.9917C1.65841 16.0417 -1.43326 27.7083 2.24174 27.7083H11.2542C11.0213 28.3672 10.9496 29.0724 11.0451 29.7647C11.1406 30.457 11.4006 31.1164 11.8033 31.6876C12.206 32.2588 12.7397 32.7252 13.3597 33.0478C13.9796 33.3703 14.6679 33.5397 15.3667 33.5417H22.0605L28.9292 40.4104C28.641 40.9957 28.4912 41.6393 28.4912 42.2917C28.4912 42.944 28.641 43.5877 28.9292 44.1729L13.3105 59.7917H10.9917C10.605 59.7917 10.234 59.9453 9.96055 60.2188C9.68705 60.4923 9.53341 60.8632 9.53341 61.25C9.53341 61.6368 9.68705 62.0077 9.96055 62.2812C10.234 62.5547 10.605 62.7083 10.9917 62.7083H13.9084C14.7688 62.7083 13.5438 63.6854 30.9855 46.2292C31.5707 46.5174 32.2144 46.6673 32.8667 46.6673C33.5191 46.6673 34.1627 46.5174 34.748 46.2292C52.1897 63.6708 50.9647 62.7083 51.8251 62.7083H54.7417C55.1285 62.7083 55.4995 62.5547 55.7729 62.2812C56.0464 62.0077 56.2001 61.6368 56.2001 61.25C56.2001 60.8632 56.0464 60.4923 55.7729 60.2188C55.4995 59.9453 55.1285 59.7917 54.7417 59.7917H52.423L36.8042 44.1729C37.0924 43.5877 37.2423 42.944 37.2423 42.2917C37.2423 41.6393 37.0924 40.9957 36.8042 40.4104L43.673 33.5417H50.3667C51.0656 33.5397 51.7539 33.3703 52.3738 33.0478C52.9938 32.7252 53.5275 32.2588 53.9302 31.6876C54.3329 31.1164 54.5929 30.457 54.6884 29.7647C54.7839 29.0724 54.7122 28.3672 54.4792 27.7083H57.6584V30.625C57.6584 31.0118 57.8121 31.3827 58.0855 31.6562C58.359 31.9297 58.73 32.0833 59.1167 32.0833H69.3251C69.7119 32.0833 70.0828 31.9297 70.3563 31.6562C70.6298 31.3827 70.7834 31.0118 70.7834 30.625V23.3333C70.7834 22.9466 70.6298 22.5756 70.3563 22.3021C70.0828 22.0286 69.7119 21.875 69.3251 21.875C68.9383 21.875 68.5674 22.0286 68.2939 22.3021C68.0204 22.5756 67.8667 22.9466 67.8667 23.3333ZM47.4501 13.125H54.7417V16.0417H43.323C43.6247 15.1883 44.1837 14.4495 44.9228 13.9272C45.662 13.4048 46.545 13.1245 47.4501 13.125ZM10.9917 18.9583H57.6584V24.7917H3.84591C4.1821 23.1447 5.07701 21.6644 6.37918 20.6014C7.68134 19.5384 9.31079 18.958 10.9917 18.9583ZM31.8459 43.3271C31.6845 43.1998 31.5518 43.0399 31.4566 42.8578C31.3613 42.6756 31.3057 42.4754 31.2932 42.2703C31.2808 42.0651 31.3118 41.8597 31.3843 41.6674C31.4568 41.4751 31.5692 41.3002 31.714 41.1544C31.8588 41.0085 32.0328 40.895 32.2246 40.8211C32.4164 40.7472 32.6216 40.7147 32.8269 40.7257C33.0321 40.7367 33.2327 40.7909 33.4155 40.8849C33.5983 40.9788 33.7592 41.1103 33.8876 41.2708C34.1112 41.5504 34.2243 41.9024 34.2051 42.2599C34.186 42.6174 34.036 42.9554 33.7837 43.2094C33.5315 43.4635 33.1946 43.6159 32.8372 43.6376C32.4799 43.6593 32.127 43.5488 31.8459 43.3271ZM34.7626 38.3542C34.1773 38.066 33.5337 37.9161 32.8813 37.9161C32.229 37.9161 31.5853 38.066 31.0001 38.3542L26.173 33.5417H39.5605L34.7626 38.3542ZM50.3667 30.625H15.3667C14.98 30.625 14.609 30.4714 14.3355 30.1979C14.0621 29.9244 13.9084 29.5534 13.9084 29.1667C13.9084 28.7799 14.0621 28.409 14.3355 28.1355C14.609 27.862 14.98 27.7083 15.3667 27.7083H50.3667C50.7535 27.7083 51.1245 27.862 51.3979 28.1355C51.6714 28.409 51.8251 28.7799 51.8251 29.1667C51.8251 29.5534 51.6714 29.9244 51.3979 30.1979C51.1245 30.4714 50.7535 30.625 50.3667 30.625Z" fill="#DC3545"/>
</g>
</g>
<defs>
<clipPath id="clip0_8004_3951">
<rect width="70.8917" height="70" fill="white" transform="translate(0.783447)"/>
</clipPath>
<clipPath id="clip1_8004_3951">
<rect width="70" height="70" fill="white" transform="translate(0.783447)"/>
</clipPath>
</defs>
</svg>
