<svg width="72" height="70" viewBox="0 0 72 70" fill="none" xmlns="http://www.w3.org/2000/svg">
<g clip-path="url(#clip0_8004_3952)">
<g clip-path="url(#clip1_8004_3952)">
<mask id="path-1-outside-1_8004_3952" maskUnits="userSpaceOnUse" x="-0.324707" y="-1" width="72" height="72" fill="black">
<rect fill="white" x="-0.324707" y="-1" width="72" height="72"/>
<path d="M67.4581 30.687H55.3318V19.586H65.2664C67.04 19.586 68.4835 18.143 68.4835 16.3689V3.21716C68.4835 1.44356 67.04 0 65.2664 0H43.347C41.5729 0 40.1299 1.44356 40.1299 3.21716V8.76762H33.413V5.40894C33.413 2.42676 30.9863 0 28.0036 0H6.08423C3.10205 0 0.675293 2.42676 0.675293 5.40894V66.7828C0.675293 68.5564 2.11885 70 3.89246 70H30.1953C31.9695 70 33.4125 68.5564 33.4125 66.7828V51.3689H37.9376V66.7828C37.9376 68.557 39.3811 70 41.1547 70H67.4581C69.2317 70 70.6753 68.5564 70.6753 66.7828V33.9041C70.6753 32.13 69.2317 30.687 67.4581 30.687ZM68.6245 33.9041V39.4546H59.4959C59.6374 39.0925 59.7159 38.6994 59.7159 38.2882C59.7159 36.5141 58.2723 35.0705 56.4987 35.0705C54.7246 35.0705 53.281 36.5141 53.281 38.2882C53.281 38.6994 53.3595 39.0925 53.5011 39.4546H50.9483V36.0959C50.9483 35.5298 50.489 35.0705 49.9229 35.0705H43.347C42.7809 35.0705 42.3216 35.5298 42.3216 36.0959V39.4546H39.9889V33.9041C39.9889 33.2606 40.5123 32.7377 41.1553 32.7377H67.4581C68.1011 32.7377 68.6245 33.2606 68.6245 33.9041ZM55.3318 38.2877C55.3318 37.6447 55.8552 37.1213 56.4982 37.1213C57.1417 37.1213 57.6651 37.6447 57.6651 38.2877C57.6651 38.9312 57.1417 39.454 56.4982 39.454C55.8552 39.454 55.3318 38.9312 55.3318 38.2877ZM44.3724 39.4546V37.1213H48.8975V39.4546H44.3724ZM65.2664 17.5352H61.9077V8.62663H66.4327V16.3689C66.4327 17.0119 65.9094 17.5352 65.2664 17.5352ZM66.4327 3.21716V6.57585H61.9077V2.05078H65.2658C65.9094 2.05078 66.4327 2.57416 66.4327 3.21716ZM42.1806 3.21716C42.1806 2.57416 42.704 2.05078 43.347 2.05078H59.8569V17.5352H43.347C42.7035 17.5352 42.1806 17.0119 42.1806 16.3689V3.21716ZM2.72607 45.8889H4.98834C5.02733 45.8889 5.05884 45.9204 5.05884 45.9594V53.6311C5.05884 53.6701 5.02733 53.7016 4.98834 53.7016H2.72607V45.8889ZM2.72607 27.2578H4.98834C5.02733 27.2578 5.05884 27.2893 5.05884 27.3283V35C5.05884 35.039 5.02733 35.0705 4.98834 35.0705H2.72607V27.2578ZM31.3622 66.7828C31.3622 67.4258 30.8389 67.9492 30.1959 67.9492H3.89246C3.24945 67.9492 2.72607 67.4258 2.72607 66.7828V55.7524H4.98834C6.15846 55.7524 7.10962 54.8013 7.10962 53.6311V45.9594C7.10962 44.7898 6.15846 43.8381 4.98834 43.8381H2.72607V41.5054H25.8118C26.3779 41.5054 26.8372 41.0461 26.8372 40.48C26.8372 39.9139 26.3779 39.4546 25.8118 39.4546H2.72607V37.1218H4.98834C6.15846 37.1218 7.10962 36.1701 7.10962 35.0005V27.3288C7.10962 26.1587 6.15846 25.207 4.98834 25.207H2.72607V5.40894C2.72607 3.55736 4.23265 2.05078 6.08423 2.05078H28.0036C29.8557 2.05078 31.3617 3.55736 31.3617 5.40894V39.454H30.1959C29.6298 39.454 29.1705 39.9133 29.1705 40.4794C29.1705 41.0461 29.6298 41.5048 30.1959 41.5048H31.3617V66.7828H31.3622ZM33.413 49.3181V10.8184H40.1299V16.3689C40.1299 18.143 41.5729 19.586 43.347 19.586H53.281V30.687H41.1553C39.3811 30.687 37.9381 32.13 37.9381 33.9041V49.3181H33.413ZM67.4581 67.9492H41.1553C40.5117 67.9492 39.9889 67.4258 39.9889 66.7828V41.5054H68.6245V66.7828C68.6245 67.4258 68.1011 67.9492 67.4581 67.9492Z"/>
</mask>
<path d="M67.4581 30.687H55.3318V19.586H65.2664C67.04 19.586 68.4835 18.143 68.4835 16.3689V3.21716C68.4835 1.44356 67.04 0 65.2664 0H43.347C41.5729 0 40.1299 1.44356 40.1299 3.21716V8.76762H33.413V5.40894C33.413 2.42676 30.9863 0 28.0036 0H6.08423C3.10205 0 0.675293 2.42676 0.675293 5.40894V66.7828C0.675293 68.5564 2.11885 70 3.89246 70H30.1953C31.9695 70 33.4125 68.5564 33.4125 66.7828V51.3689H37.9376V66.7828C37.9376 68.557 39.3811 70 41.1547 70H67.4581C69.2317 70 70.6753 68.5564 70.6753 66.7828V33.9041C70.6753 32.13 69.2317 30.687 67.4581 30.687ZM68.6245 33.9041V39.4546H59.4959C59.6374 39.0925 59.7159 38.6994 59.7159 38.2882C59.7159 36.5141 58.2723 35.0705 56.4987 35.0705C54.7246 35.0705 53.281 36.5141 53.281 38.2882C53.281 38.6994 53.3595 39.0925 53.5011 39.4546H50.9483V36.0959C50.9483 35.5298 50.489 35.0705 49.9229 35.0705H43.347C42.7809 35.0705 42.3216 35.5298 42.3216 36.0959V39.4546H39.9889V33.9041C39.9889 33.2606 40.5123 32.7377 41.1553 32.7377H67.4581C68.1011 32.7377 68.6245 33.2606 68.6245 33.9041ZM55.3318 38.2877C55.3318 37.6447 55.8552 37.1213 56.4982 37.1213C57.1417 37.1213 57.6651 37.6447 57.6651 38.2877C57.6651 38.9312 57.1417 39.454 56.4982 39.454C55.8552 39.454 55.3318 38.9312 55.3318 38.2877ZM44.3724 39.4546V37.1213H48.8975V39.4546H44.3724ZM65.2664 17.5352H61.9077V8.62663H66.4327V16.3689C66.4327 17.0119 65.9094 17.5352 65.2664 17.5352ZM66.4327 3.21716V6.57585H61.9077V2.05078H65.2658C65.9094 2.05078 66.4327 2.57416 66.4327 3.21716ZM42.1806 3.21716C42.1806 2.57416 42.704 2.05078 43.347 2.05078H59.8569V17.5352H43.347C42.7035 17.5352 42.1806 17.0119 42.1806 16.3689V3.21716ZM2.72607 45.8889H4.98834C5.02733 45.8889 5.05884 45.9204 5.05884 45.9594V53.6311C5.05884 53.6701 5.02733 53.7016 4.98834 53.7016H2.72607V45.8889ZM2.72607 27.2578H4.98834C5.02733 27.2578 5.05884 27.2893 5.05884 27.3283V35C5.05884 35.039 5.02733 35.0705 4.98834 35.0705H2.72607V27.2578ZM31.3622 66.7828C31.3622 67.4258 30.8389 67.9492 30.1959 67.9492H3.89246C3.24945 67.9492 2.72607 67.4258 2.72607 66.7828V55.7524H4.98834C6.15846 55.7524 7.10962 54.8013 7.10962 53.6311V45.9594C7.10962 44.7898 6.15846 43.8381 4.98834 43.8381H2.72607V41.5054H25.8118C26.3779 41.5054 26.8372 41.0461 26.8372 40.48C26.8372 39.9139 26.3779 39.4546 25.8118 39.4546H2.72607V37.1218H4.98834C6.15846 37.1218 7.10962 36.1701 7.10962 35.0005V27.3288C7.10962 26.1587 6.15846 25.207 4.98834 25.207H2.72607V5.40894C2.72607 3.55736 4.23265 2.05078 6.08423 2.05078H28.0036C29.8557 2.05078 31.3617 3.55736 31.3617 5.40894V39.454H30.1959C29.6298 39.454 29.1705 39.9133 29.1705 40.4794C29.1705 41.0461 29.6298 41.5048 30.1959 41.5048H31.3617V66.7828H31.3622ZM33.413 49.3181V10.8184H40.1299V16.3689C40.1299 18.143 41.5729 19.586 43.347 19.586H53.281V30.687H41.1553C39.3811 30.687 37.9381 32.13 37.9381 33.9041V49.3181H33.413ZM67.4581 67.9492H41.1553C40.5117 67.9492 39.9889 67.4258 39.9889 66.7828V41.5054H68.6245V66.7828C68.6245 67.4258 68.1011 67.9492 67.4581 67.9492Z" fill="#DC3545"/>
<path d="M67.4581 30.687H55.3318V19.586H65.2664C67.04 19.586 68.4835 18.143 68.4835 16.3689V3.21716C68.4835 1.44356 67.04 0 65.2664 0H43.347C41.5729 0 40.1299 1.44356 40.1299 3.21716V8.76762H33.413V5.40894C33.413 2.42676 30.9863 0 28.0036 0H6.08423C3.10205 0 0.675293 2.42676 0.675293 5.40894V66.7828C0.675293 68.5564 2.11885 70 3.89246 70H30.1953C31.9695 70 33.4125 68.5564 33.4125 66.7828V51.3689H37.9376V66.7828C37.9376 68.557 39.3811 70 41.1547 70H67.4581C69.2317 70 70.6753 68.5564 70.6753 66.7828V33.9041C70.6753 32.13 69.2317 30.687 67.4581 30.687ZM68.6245 33.9041V39.4546H59.4959C59.6374 39.0925 59.7159 38.6994 59.7159 38.2882C59.7159 36.5141 58.2723 35.0705 56.4987 35.0705C54.7246 35.0705 53.281 36.5141 53.281 38.2882C53.281 38.6994 53.3595 39.0925 53.5011 39.4546H50.9483V36.0959C50.9483 35.5298 50.489 35.0705 49.9229 35.0705H43.347C42.7809 35.0705 42.3216 35.5298 42.3216 36.0959V39.4546H39.9889V33.9041C39.9889 33.2606 40.5123 32.7377 41.1553 32.7377H67.4581C68.1011 32.7377 68.6245 33.2606 68.6245 33.9041ZM55.3318 38.2877C55.3318 37.6447 55.8552 37.1213 56.4982 37.1213C57.1417 37.1213 57.6651 37.6447 57.6651 38.2877C57.6651 38.9312 57.1417 39.454 56.4982 39.454C55.8552 39.454 55.3318 38.9312 55.3318 38.2877ZM44.3724 39.4546V37.1213H48.8975V39.4546H44.3724ZM65.2664 17.5352H61.9077V8.62663H66.4327V16.3689C66.4327 17.0119 65.9094 17.5352 65.2664 17.5352ZM66.4327 3.21716V6.57585H61.9077V2.05078H65.2658C65.9094 2.05078 66.4327 2.57416 66.4327 3.21716ZM42.1806 3.21716C42.1806 2.57416 42.704 2.05078 43.347 2.05078H59.8569V17.5352H43.347C42.7035 17.5352 42.1806 17.0119 42.1806 16.3689V3.21716ZM2.72607 45.8889H4.98834C5.02733 45.8889 5.05884 45.9204 5.05884 45.9594V53.6311C5.05884 53.6701 5.02733 53.7016 4.98834 53.7016H2.72607V45.8889ZM2.72607 27.2578H4.98834C5.02733 27.2578 5.05884 27.2893 5.05884 27.3283V35C5.05884 35.039 5.02733 35.0705 4.98834 35.0705H2.72607V27.2578ZM31.3622 66.7828C31.3622 67.4258 30.8389 67.9492 30.1959 67.9492H3.89246C3.24945 67.9492 2.72607 67.4258 2.72607 66.7828V55.7524H4.98834C6.15846 55.7524 7.10962 54.8013 7.10962 53.6311V45.9594C7.10962 44.7898 6.15846 43.8381 4.98834 43.8381H2.72607V41.5054H25.8118C26.3779 41.5054 26.8372 41.0461 26.8372 40.48C26.8372 39.9139 26.3779 39.4546 25.8118 39.4546H2.72607V37.1218H4.98834C6.15846 37.1218 7.10962 36.1701 7.10962 35.0005V27.3288C7.10962 26.1587 6.15846 25.207 4.98834 25.207H2.72607V5.40894C2.72607 3.55736 4.23265 2.05078 6.08423 2.05078H28.0036C29.8557 2.05078 31.3617 3.55736 31.3617 5.40894V39.454H30.1959C29.6298 39.454 29.1705 39.9133 29.1705 40.4794C29.1705 41.0461 29.6298 41.5048 30.1959 41.5048H31.3617V66.7828H31.3622ZM33.413 49.3181V10.8184H40.1299V16.3689C40.1299 18.143 41.5729 19.586 43.347 19.586H53.281V30.687H41.1553C39.3811 30.687 37.9381 32.13 37.9381 33.9041V49.3181H33.413ZM67.4581 67.9492H41.1553C40.5117 67.9492 39.9889 67.4258 39.9889 66.7828V41.5054H68.6245V66.7828C68.6245 67.4258 68.1011 67.9492 67.4581 67.9492Z" stroke="#DC3545" stroke-width="0.8" mask="url(#path-1-outside-1_8004_3952)"/>
<path d="M19.2354 8.56738C20.5153 8.56738 21.5565 9.60871 21.5566 10.8887V13.0811C21.5564 14.3615 20.5152 15.4023 19.2354 15.4023H14.8516C13.5718 15.4022 12.5305 14.3614 12.5303 13.0811V10.8887C12.5304 9.60877 13.5717 8.56748 14.8516 8.56738H19.2354ZM14.9814 12.9512H19.1064V11.0186H14.9814V12.9512Z" fill="#DC3545" stroke="#DC3545" stroke-width="0.4"/>
<path d="M65.2664 34.8704C65.9433 34.8706 66.491 35.4196 66.491 36.0959C66.491 36.7723 65.9433 37.3213 65.2664 37.3215H61.9783C61.3017 37.3215 60.7527 36.7725 60.7527 36.0959C60.7527 35.4194 61.3017 34.8704 61.9783 34.8704H65.2664Z" fill="#DC3545" stroke="#DC3545" stroke-width="0.4"/>
<path d="M54.3064 44.7339C59.8167 44.7339 64.2995 49.2168 64.2996 54.7271C64.2996 60.2374 59.8167 64.7202 54.3064 64.7202C48.7961 64.7202 44.3132 60.2373 44.3132 54.7271C44.3133 49.2168 48.7961 44.7339 54.3064 44.7339ZM54.3064 47.1851C50.1482 47.1851 46.7644 50.5683 46.7644 54.7271C46.7644 58.8858 50.1476 62.269 54.3064 62.269C58.4652 62.269 61.8484 58.8859 61.8484 54.7271C61.8484 50.5688 58.4652 47.1851 54.3064 47.1851Z" fill="#DC3545" stroke="#DC3545" stroke-width="0.4"/>
<path d="M54.3066 49.1179C54.7809 49.1179 55.253 49.1772 55.709 49.2947C56.364 49.4639 56.7579 50.1319 56.5889 50.7869C56.4204 51.4422 55.7528 51.8368 55.0977 51.6687H55.0967C54.8413 51.6026 54.5753 51.5691 54.3066 51.5691C52.5655 51.5691 51.1484 52.9862 51.1484 54.7273C51.1486 56.4689 52.5656 57.8855 54.3066 57.8855C56.0481 57.8854 57.4647 56.4688 57.4648 54.7273C57.4648 54.4588 57.4315 54.1923 57.3652 53.9353C57.1961 53.2797 57.5908 52.6122 58.2461 52.4431C58.9008 52.2747 59.5691 52.6685 59.7383 53.324C59.8557 53.7804 59.916 54.2529 59.916 54.7273C59.9159 57.8203 57.3996 60.3365 54.3066 60.3367C51.2135 60.3367 48.6974 57.8203 48.6973 54.7273C48.6973 51.6341 51.2135 49.1179 54.3066 49.1179Z" fill="#DC3545" stroke="#DC3545" stroke-width="0.4"/>
<path d="M49.9226 4.18335C50.5992 4.18335 51.1482 4.73238 51.1482 5.40894C51.1482 6.0861 50.5991 6.63452 49.9226 6.63452H46.7644V12.9509H55.2732V6.63452H54.3074C53.6309 6.63452 53.0818 6.0861 53.0818 5.40894C53.0818 4.73238 53.6308 4.18335 54.3074 4.18335H56.4988C57.1753 4.18337 57.7244 4.73239 57.7244 5.40894V14.1765C57.7244 14.8537 57.1753 15.4021 56.4988 15.4021H45.5388C44.8623 15.4021 44.3132 14.8537 44.3132 14.1765V5.40894C44.3132 4.73238 44.8623 4.18335 45.5388 4.18335H49.9226Z" fill="#DC3545" stroke="#DC3545" stroke-width="0.4"/>
</g>
</g>
<defs>
<clipPath id="clip0_8004_3952">
<rect width="70.8917" height="70" fill="white" transform="translate(0.675293)"/>
</clipPath>
<clipPath id="clip1_8004_3952">
<rect width="70" height="70" fill="white" transform="translate(0.675293)"/>
</clipPath>
</defs>
</svg>
