<svg width="72" height="70" viewBox="0 0 72 70" fill="none" xmlns="http://www.w3.org/2000/svg">
<g clip-path="url(#clip0_8004_3946)">
<path d="M38.0291 35.4783H37.383V32.1287C37.383 32.0407 37.3107 31.9692 37.2214 31.9692H35.9292C35.8399 31.9692 35.7676 32.0407 35.7676 32.1287V35.4783H35.1215C34.4081 35.4791 33.83 36.05 33.8292 36.7544C33.8292 36.8425 33.9015 36.9139 33.9907 36.9139H34.0705L32.8726 39.7231C32.8379 39.8043 32.8765 39.8978 32.9588 39.932C32.9786 39.9402 32.9999 39.9445 33.0215 39.9445H38.1907C38.2671 39.9445 38.3331 39.8916 38.3488 39.8178L38.9678 36.9139H39.1599C39.2491 36.9139 39.3214 36.8425 39.3214 36.7544C39.3206 36.05 38.7425 35.4791 38.0291 35.4783ZM36.0907 32.2882H37.0599V35.4783H36.0907V32.2882ZM38.0595 39.6255H37.4457L37.8593 38.3998C37.8875 38.3161 37.8417 38.2257 37.7569 38.1979C37.6722 38.1701 37.5806 38.2153 37.5524 38.299L37.1051 39.6255H36.6378L37.0515 38.3998C37.0797 38.3161 37.0338 38.2257 36.9491 38.1979C36.8643 38.1701 36.7728 38.2153 36.7446 38.299L36.2975 39.6255H35.8301L36.2438 38.3998C36.272 38.3161 36.2262 38.2257 36.1414 38.1979C36.0567 38.1701 35.9651 38.2153 35.9369 38.299L35.4898 39.6255H35.0224L35.4361 38.3998C35.4643 38.3161 35.4185 38.2257 35.3337 38.1979C35.249 38.1701 35.1574 38.2153 35.1292 38.299L34.6821 39.6255H34.2148L34.6285 38.3998C34.6566 38.3161 34.6108 38.2257 34.526 38.1979C34.4413 38.1701 34.3497 38.2153 34.3215 38.299L33.8744 39.6255H33.2648L34.421 36.9139H38.6371L38.0595 39.6255ZM34.1657 36.5949C34.2451 36.1347 34.6487 35.7979 35.1215 35.7973H38.0291C38.5019 35.7979 38.9055 36.1347 38.9849 36.5949H34.1657Z" fill="#DC3545"/>
<path d="M56.4108 17.9162H55.3845V6.33388C55.3845 2.84141 52.5282 0 49.0174 0H23.4409C19.9302 0 17.0739 2.84141 17.0739 6.33388V17.9162H16.0477C14.0059 17.9162 12.345 19.567 12.345 21.5959V24.2058C12.345 25.3392 12.8636 26.3543 13.6771 27.0299V50.7927C13.6771 51.9868 14.2528 53.0494 15.1424 53.7222V57.4285C15.1424 58.3561 15.6867 59.1593 16.4745 59.5422V68.311C16.4745 69.2423 17.2391 70 18.1791 70H22.1755C23.1152 70 23.8799 69.2423 23.8799 68.311V65.7531H48.5788V68.311C48.5788 69.2423 49.3434 70 50.2832 70H54.2796C55.2195 70 55.9842 69.2423 55.9842 68.311V60.867C56.7716 60.484 57.3163 59.6827 57.3163 58.7555V53.7221C58.2059 53.0494 58.7816 51.9867 58.7816 50.7926V27.0299C59.5951 26.3543 60.1138 25.3394 60.1138 24.2058V21.5959C60.1135 19.567 58.4525 17.9162 56.4108 17.9162ZM19.1507 6.33388C19.1507 3.97221 21.0751 2.05077 23.4407 2.05077H49.0174C51.383 2.05077 53.3075 3.97221 53.3075 6.33388V17.9162H48.9236V6.39705C48.9236 5.78318 48.6083 5.2251 48.0802 4.90422C47.555 4.58512 46.9131 4.55832 46.3632 4.83244L42.5123 6.7506C42.0529 6.97946 41.5387 7.10046 41.0253 7.10046H31.4329C30.9195 7.10046 30.4053 6.97946 29.9458 6.7506L26.0951 4.83244C25.545 4.55846 24.9031 4.58498 24.378 4.90408C23.85 5.2251 23.5346 5.78304 23.5346 6.39691V17.9161H19.1507V6.33388ZM53.9071 67.949H50.6554V64.7275C50.6554 64.1612 50.1906 63.7021 49.617 63.7021H22.8413C22.2677 63.7021 21.8029 64.1612 21.8029 64.7275V67.949H18.5514V59.8081C20.0245 59.8653 21.4983 60.0145 22.9488 60.2554L25.0541 60.605C27.0642 60.9387 29.1165 61.108 31.1542 61.108H53.9071V67.949ZM55.2391 58.7555C55.2391 58.9219 55.1075 59.0572 54.9455 59.0572H31.154C29.2314 59.0572 27.295 58.8975 25.3984 58.5827L23.2931 58.2331C21.4097 57.9203 19.4894 57.7521 17.5788 57.732C17.5581 57.7308 17.5374 57.7302 17.5164 57.7301C17.5153 57.7301 17.5141 57.7299 17.513 57.7299C17.5128 57.7299 17.5127 57.7299 17.5126 57.7299C17.3508 57.7297 17.2193 57.5945 17.2193 57.4282V54.4681C17.2726 54.4705 17.3261 54.4722 17.3798 54.4722H23.3077C23.8813 54.4722 24.3461 54.0131 24.3461 53.4468C24.3461 52.8806 23.8813 52.4215 23.3077 52.4215H17.3798C16.4833 52.4215 15.754 51.6907 15.754 50.7926V27.8729C15.8511 27.8805 15.9487 27.8856 16.0477 27.8856H48.3527C46.4399 30.7773 43.2216 33.4411 38.9402 35.6571C33.8857 38.273 27.5556 40.1558 20.6343 41.102C20.066 41.1797 19.6694 41.6974 19.7481 42.2584C19.8201 42.7716 20.265 43.1432 20.7754 43.1432C20.8229 43.1432 20.8708 43.1401 20.9191 43.1334C35.3053 41.1667 46.6614 35.3486 50.7701 27.8856H52.3046C51.154 34.7037 48.6735 40.8409 45.2634 45.2647C41.654 49.9469 37.3324 52.4217 32.7657 52.4217H27.0819C26.5083 52.4217 26.0435 52.8808 26.0435 53.4471C26.0435 54.0134 26.5083 54.4725 27.0819 54.4725H55.0787C55.1325 54.4725 55.1858 54.4707 55.2391 54.4684V58.7555ZM55.0787 52.4216H40.282C42.6829 51.0722 44.933 49.0788 46.9159 46.5066C50.5836 41.7487 53.2295 35.1623 54.4092 27.8855H56.4108C56.5098 27.8855 56.6074 27.8804 56.7045 27.8727V50.7927C56.7045 51.6908 55.975 52.4216 55.0787 52.4216ZM58.0364 24.2058C58.0364 25.1039 57.307 25.8347 56.4106 25.8347H16.0475C15.151 25.8347 14.4217 25.1039 14.4217 24.2058V21.5959C14.4217 20.6978 15.1511 19.967 16.0475 19.967H39.4705C40.0441 19.967 40.5089 19.5079 40.5089 18.9416C40.5089 18.3753 40.0441 17.9162 39.4705 17.9162H25.6114V6.88855L29.0103 8.58167C29.7582 8.95436 30.5961 9.15123 31.4328 9.15123H41.0251C41.8618 9.15123 42.6997 8.95436 43.4476 8.58167L46.8465 6.88855V17.9162H43.3335C42.7599 17.9162 42.2951 18.3753 42.2951 18.9416C42.2951 19.5079 42.7599 19.967 43.3335 19.967H56.4105C57.307 19.967 58.0363 20.6978 58.0363 21.5959V24.2058H58.0364Z" fill="#DC3545"/>
</g>
<defs>
<clipPath id="clip0_8004_3946">
<rect width="70.8917" height="70" fill="white" transform="translate(0.783447)"/>
</clipPath>
</defs>
</svg>
