<svg width="72" height="70" viewBox="0 0 72 70" fill="none" xmlns="http://www.w3.org/2000/svg">
<g clip-path="url(#clip0_8004_3945)">
<g clip-path="url(#clip1_8004_3945)">
<path d="M57.605 31.4555H52.8789V6.64344C52.8789 5.99094 52.3499 5.46191 51.6974 5.46191H42.2451C41.5926 5.46191 41.0636 5.99094 41.0636 6.64344V31.4555H36.3375C31.1196 31.4615 26.8912 35.6898 26.8853 40.9078C26.8853 41.5603 27.4143 42.0893 28.0668 42.0893H28.6505L19.8883 62.8984C19.6351 63.4998 19.9174 64.1926 20.5188 64.4457C20.6639 64.5069 20.82 64.5383 20.9776 64.5383H58.7865C59.3454 64.5386 59.8281 64.1471 59.9433 63.6002L64.4709 42.0893H65.8757C66.5282 42.0893 67.0572 41.5603 67.0572 40.9078C67.0513 35.6898 62.8229 31.4615 57.605 31.4555ZM43.4267 7.82497H50.5158V31.4555H43.4267V7.82497ZM57.8271 62.1753H53.3373L56.3632 53.0964C56.5694 52.4766 56.234 51.8068 55.6141 51.6006C54.9943 51.3944 54.3245 51.7298 54.1183 52.3497L50.8467 62.1753H47.4285L50.4544 53.0964C50.6606 52.4766 50.3252 51.8068 49.7053 51.6006C49.0855 51.3944 48.4157 51.7298 48.2095 52.3497L44.939 62.1753H41.5209L44.5468 53.0964C44.7529 52.4766 44.4175 51.8068 43.7977 51.6006C43.1778 51.3944 42.508 51.7298 42.3019 52.3497L39.0314 62.1753H35.6132L38.6391 53.0964C38.8453 52.4766 38.5099 51.8068 37.89 51.6006C37.2702 51.3944 36.6004 51.7298 36.3942 52.3497L33.1237 62.1753H29.7056L32.7315 53.0964C32.9377 52.4766 32.6022 51.8068 31.9824 51.6006C31.3625 51.3944 30.6928 51.7298 30.4866 52.3497L27.2161 62.1753H22.757L31.2144 42.0893H62.0523L57.8271 62.1753ZM29.3464 39.7262C29.9276 36.3175 32.8796 33.8229 36.3375 33.8186H57.605C61.0629 33.8229 64.015 36.3175 64.5961 39.7262H29.3464Z" fill="#DC3545"/>
<path d="M16.2515 62.1753H2.07313C1.42063 62.1753 0.891602 62.7043 0.891602 63.3568C0.891602 64.0093 1.42063 64.5383 2.07313 64.5383H16.2515C16.904 64.5383 17.433 64.0093 17.433 63.3568C17.433 62.7043 16.904 62.1753 16.2515 62.1753Z" fill="#DC3545"/>
<path d="M16.2514 55.0859H6.7992C6.14671 55.0859 5.61768 55.615 5.61768 56.2675C5.61768 56.92 6.14671 57.449 6.7992 57.449H16.2514C16.9039 57.449 17.433 56.92 17.433 56.2675C17.433 55.615 16.9039 55.0859 16.2514 55.0859Z" fill="#DC3545"/>
<path d="M70.6018 23.1849C68.6441 23.1849 67.0572 21.5979 67.0572 19.6403C67.0572 18.9878 66.5282 18.4587 65.8757 18.4587C65.2232 18.4587 64.6941 18.9878 64.6941 19.6403C64.6941 21.5979 63.1072 23.1849 61.1495 23.1849C60.497 23.1849 59.968 23.7139 59.968 24.3664C59.968 25.0189 60.497 25.5479 61.1495 25.5479C63.1072 25.5479 64.6941 27.1349 64.6941 29.0925C64.6941 29.745 65.2232 30.274 65.8757 30.274C66.5282 30.274 67.0572 29.745 67.0572 29.0925C67.0572 27.1349 68.6441 25.5479 70.6018 25.5479C71.2543 25.5479 71.7833 25.0189 71.7833 24.3664C71.7833 23.7139 71.2543 23.1849 70.6018 23.1849ZM65.8757 25.5479C65.5395 25.1003 65.1418 24.7025 64.6941 24.3664C65.1418 24.0302 65.5395 23.6325 65.8757 23.1849C66.2118 23.6325 66.6095 24.0302 67.0572 24.3664C66.6095 24.7025 66.2118 25.1003 65.8757 25.5479Z" fill="#DC3545"/>
</g>
</g>
<defs>
<clipPath id="clip0_8004_3945">
<rect width="70.8917" height="70" fill="white" transform="translate(0.891602)"/>
</clipPath>
<clipPath id="clip1_8004_3945">
<rect width="70.8917" height="70.8917" fill="white" transform="translate(0.891602 -0.445801)"/>
</clipPath>
</defs>
</svg>
