<svg width="72" height="70" viewBox="0 0 72 70" fill="none" xmlns="http://www.w3.org/2000/svg">
<g clip-path="url(#clip0_8004_3950)">
<g clip-path="url(#clip1_8004_3950)">
<path d="M53.7092 38.1239C53.0558 37.6717 52.1429 37.838 51.682 38.503L36.0366 61.3705C35.9316 61.5221 35.8588 61.6943 35.8179 61.878C35.5233 63.2052 34.3303 64.1677 32.974 64.1677C31.364 64.1677 30.0573 62.858 30.0573 61.251C30.0573 61.0264 30.0952 60.7872 30.2061 60.3263L33.8783 35.5484C33.998 34.7522 33.4467 34.0113 32.6504 33.8918C31.8717 33.7926 31.1132 34.3234 30.9966 35.1197L27.3594 59.7283C27.2106 60.2708 27.1406 60.7667 27.1406 61.2509C27.1406 64.4681 29.757 67.0844 32.9742 67.0844C35.5876 67.0844 37.9006 65.3022 38.5919 62.8027L54.0915 40.1511C54.5435 39.4861 54.3742 38.5789 53.7092 38.1239Z" fill="#DC3545"/>
<path d="M51.9328 11.6658C46.3035 11.6658 41.7241 16.245 41.7241 21.8745C41.7241 27.5039 46.3034 32.0832 51.9328 32.0832C57.5621 32.0832 62.1415 27.5039 62.1415 21.8745C62.1415 16.245 57.5623 11.6658 51.9328 11.6658ZM51.9328 29.1663C47.9106 29.1663 44.641 25.8937 44.641 21.8745C44.641 17.8552 47.9107 14.5826 51.9328 14.5826C55.9551 14.5826 59.2247 17.8552 59.2247 21.8745C59.2247 25.8937 55.9551 29.1663 51.9328 29.1663Z" fill="#DC3545"/>
<path d="M59.2249 17.4995H44.641C43.836 17.4995 43.1826 18.1529 43.1826 18.9579C43.1826 19.763 43.836 20.4164 44.641 20.4164H59.2249C60.0299 20.4164 60.6833 19.763 60.6833 18.9579C60.6833 18.1529 60.0299 17.4995 59.2249 17.4995Z" fill="#DC3545"/>
<path d="M59.2249 23.333H44.641C43.836 23.333 43.1826 23.9864 43.1826 24.7914C43.1826 25.5965 43.836 26.2499 44.641 26.2499H59.2249C60.0299 26.2499 60.6833 25.5965 60.6833 24.7914C60.6833 23.9864 60.0299 23.333 59.2249 23.333Z" fill="#DC3545"/>
<path d="M51.9328 2.91553C46.073 2.91553 38.8715 4.71808 32.5218 6.31063C27.5167 7.56479 22.7887 8.74909 19.8486 8.74909C19.0435 8.74909 18.3901 9.40249 18.3901 10.2075V33.5416C18.3901 34.3466 19.0435 35 19.8486 35C25.3496 35 32.3586 36.756 38.545 38.3018C42.5205 39.2964 46.2803 40.2384 49.2612 40.6265C49.6229 40.679 49.9875 40.7256 50.3463 40.7549C50.9063 40.8045 51.4401 40.8336 51.9329 40.8336C62.3866 40.8336 70.8919 32.3283 70.8919 21.8746C70.8919 11.4209 62.3865 2.91553 51.9328 2.91553ZM51.9328 37.9166C51.5187 37.9166 51.0781 37.8904 50.5969 37.8495C50.2819 37.8204 49.9727 37.7795 49.649 37.7357C46.8226 37.3654 43.1447 36.4466 39.2537 35.4723C33.4201 34.0139 26.8749 32.3747 21.3068 32.1181V11.6017C24.4657 11.3363 28.5755 10.3066 33.2306 9.13998C39.4199 7.59118 46.4319 5.83238 51.9328 5.83238C60.7765 5.83238 67.9749 13.028 67.9749 21.8745C67.9749 30.721 60.7765 37.9166 51.9328 37.9166Z" fill="#DC3545"/>
<path d="M15.0475 20.7983C11.7458 17.4935 9.04193 19.4945 7.42888 20.6933C5.74595 21.9445 5.04292 22.4637 3.38037 20.7983C2.8116 20.2295 1.88695 20.2295 1.31818 20.7983C0.74941 21.367 0.74941 22.2917 1.31818 22.8605C2.72984 24.2751 4.02789 24.7621 5.18293 24.7621C6.83673 24.7621 8.19302 23.7559 9.1643 23.0355C10.8327 21.7988 11.4569 21.335 12.9853 22.8605C13.5541 23.4292 14.4787 23.4292 15.0475 22.8605C15.6163 22.2917 15.6163 21.367 15.0475 20.7983Z" fill="#DC3545"/>
<path d="M15.0475 28.1135C11.7458 24.8118 9.04193 26.8068 7.42888 28.0085C5.74595 29.2598 5.04292 29.7789 3.38037 28.1135C2.8116 27.5447 1.88695 27.5447 1.31818 28.1135C0.74941 28.6823 0.74941 29.6069 1.31818 30.1757C2.72984 31.5904 4.02789 32.0774 5.18293 32.0774C6.83673 32.0774 8.19302 31.0711 9.1643 30.3507C10.8327 29.114 11.4569 28.6503 12.9853 30.1757C13.5541 30.7445 14.4787 30.7445 15.0475 30.1757C15.6163 29.6069 15.6163 28.6823 15.0475 28.1135Z" fill="#DC3545"/>
<path d="M15.0475 13.5296C11.7458 10.2279 9.04193 12.2258 7.42888 13.4246C5.74595 14.6759 5.04292 15.1951 3.38037 13.5296C2.8116 12.9609 1.88695 12.9609 1.31818 13.5296C0.74941 14.0984 0.74941 15.0231 1.31818 15.5918C2.72984 17.0065 4.02789 17.4935 5.18293 17.4935C6.83673 17.4935 8.19302 16.4872 9.1643 15.7668C10.8327 14.5302 11.4569 14.0693 12.9853 15.5918C13.5541 16.1606 14.4787 16.1606 15.0475 15.5918C15.6163 15.0231 15.6163 14.0984 15.0475 13.5296Z" fill="#DC3545"/>
</g>
</g>
<defs>
<clipPath id="clip0_8004_3950">
<rect width="70.8917" height="70" fill="white" transform="translate(0.891846)"/>
</clipPath>
<clipPath id="clip1_8004_3950">
<rect width="70" height="70" fill="white" transform="translate(0.891846)"/>
</clipPath>
</defs>
</svg>
