<svg width="72" height="70" viewBox="0 0 72 70" fill="none" xmlns="http://www.w3.org/2000/svg">
<g clip-path="url(#clip0_8004_3953)">
<g clip-path="url(#clip1_8004_3953)">
<path d="M60.3157 10.2513C53.705 3.64063 44.9157 0 35.5669 0C26.2181 0 17.4288 3.64063 10.8181 10.2513C4.20752 16.8619 0.566895 25.6512 0.566895 35C0.566895 44.3488 4.20752 53.1381 10.8181 59.7487C17.4288 66.3594 26.2181 70 35.5669 70C44.9157 70 53.705 66.3594 60.3157 59.7487C66.9263 53.1381 70.5669 44.3488 70.5669 35C70.5669 25.6512 66.9263 16.8619 60.3157 10.2513ZM35.5669 67.651C17.5631 67.651 2.91589 53.0039 2.91589 35C2.91589 16.9961 17.5631 2.34899 35.5669 2.34899C53.5707 2.34899 68.2179 16.9961 68.2179 35C68.2179 53.0039 53.5707 67.651 35.5669 67.651Z" fill="#DC3545"/>
<path d="M29.3028 38.6802C34.0953 38.6802 37.9941 34.7813 37.9941 29.9889C37.9941 25.1965 34.0953 21.2976 29.3028 21.2976C24.5104 21.2976 20.6116 25.1965 20.6116 29.9889C20.6116 34.7813 24.5104 38.6802 29.3028 38.6802ZM29.3028 23.6466C32.8 23.6466 35.6451 26.4917 35.6451 29.9889C35.6451 33.4861 32.8 36.3312 29.3028 36.3312C25.8057 36.3312 22.9606 33.4861 22.9606 29.9889C22.9606 26.4917 25.8057 23.6466 29.3028 23.6466Z" fill="#DC3545"/>
<path d="M60.0921 43.8898L59.1316 41.3876C59.1545 41.3211 59.1716 41.2516 59.1824 41.1794C59.4284 39.5307 59.463 37.8322 59.2853 36.1309C58.5243 28.8482 55.0419 25.936 50.4772 22.9164C50.6832 22.747 50.8832 22.5666 51.0757 22.3741C53.2438 20.206 53.9648 17.1028 52.87 14.652C52.7521 14.3878 52.5408 14.1766 52.2766 14.0587C49.8259 12.9642 46.7225 13.685 44.5544 15.8531C43.9357 16.4719 43.4354 17.1668 43.0609 17.901C42.4638 17.4542 41.8847 17.0063 41.315 16.5469C36.3556 12.5473 28.1447 12.2255 21.7913 15.7813C15.161 19.4919 11.9947 26.5517 13.1042 35.1506C13.6734 39.5626 15.9554 43.8826 19.5989 47.526C19.2074 47.6228 18.7756 47.7559 18.288 47.943C17.9972 48.0547 17.7626 48.2772 17.6359 48.5618C17.5092 48.8463 17.5007 49.1697 17.6124 49.4603L21.204 58.8172C21.3157 59.108 21.5382 59.3426 21.8229 59.4692C21.9746 59.5369 22.1375 59.5707 22.3005 59.5707C22.443 59.5707 22.5858 59.5447 22.7215 59.4927C24.0471 58.9838 24.7587 58.9832 25.5827 58.9822C26.506 58.9813 27.5524 58.9802 29.2831 58.3159C31.0142 57.6513 31.7928 56.9519 32.4796 56.3347C32.8314 56.0189 33.1562 55.7278 33.6189 55.4409C35.72 55.9655 37.8003 56.2326 39.8176 56.2326C40.0858 56.2326 40.3533 56.2281 40.6194 56.2185C51.3643 55.8394 55.8452 49.9809 57.5869 46.3958C58.0199 46.0602 58.5469 45.7408 59.4165 45.4071C60.0221 45.1747 60.3246 44.4954 60.0921 43.8898ZM46.2158 17.5139C47.5437 16.1858 49.3982 15.62 50.8837 16.0451C51.309 17.5308 50.7428 19.3851 49.4149 20.713C48.4882 21.64 47.3052 22.1942 46.1699 22.3008L47.4704 21.0006C47.9291 20.5419 47.9293 19.7983 47.4706 19.3397C47.0119 18.881 46.2682 18.8808 45.8096 19.3395L44.6629 20.4858C44.8267 19.4361 45.3632 18.3666 46.2158 17.5139ZM15.4341 34.8498C14.0919 24.4475 19.5597 19.7219 22.9387 17.831C28.3998 14.7745 35.666 15.0086 39.8408 18.3752C40.6402 19.02 41.4555 19.643 42.3143 20.2696C42.2049 21.0919 42.2475 21.9149 42.4524 22.6956L41.0004 24.1473C40.5417 24.606 40.5415 25.3495 41.0002 25.8082C41.2296 26.0376 41.5302 26.1522 41.8308 26.1522C42.1313 26.1522 42.4319 26.0376 42.6613 25.8083L44.0467 24.4232C44.6072 24.5906 45.1915 24.6741 45.784 24.6741C46.5882 24.6741 47.4064 24.5228 48.1968 24.2314C52.7959 27.2162 55.9049 29.4183 56.816 35.3554L56.5004 34.5333C56.2681 33.9277 55.5884 33.6253 54.9832 33.8577C53.3894 34.4695 52.6027 35.1103 51.9515 35.6896L48.0881 32.94L48.0879 32.9399L48.0875 32.9396L44.0051 30.0342C43.7512 29.8534 43.4366 29.7809 43.1289 29.8329C42.8218 29.8846 42.5477 30.0562 42.367 30.3101C41.291 31.8221 41.0284 32.836 40.7968 33.7305C40.5899 34.5294 40.4113 35.2192 39.5866 36.3779C38.7619 37.5364 38.1687 37.9313 37.4817 38.3884C36.7125 38.9005 35.8406 39.4809 34.7646 40.9928C34.3689 41.5488 34.0608 42.0671 33.8175 42.5866C32.9847 42.5986 32.0031 42.6791 30.5153 43.2502C28.7841 43.9147 28.0054 44.6142 27.3184 45.2312C26.7053 45.7821 26.1759 46.2577 24.8498 46.7667C23.9486 47.1126 23.3313 47.2235 22.7694 47.2595C18.6121 43.7092 16.0101 39.3132 15.4341 34.8498ZM49.9143 37.1225C49.7325 37.2066 49.534 37.291 49.3114 37.3763C48.2708 37.7758 47.6081 37.8626 46.9729 37.882C47.0415 37.6521 47.0993 37.4332 47.1533 37.2247C47.293 36.6853 47.4208 36.1948 47.7423 35.5768L49.9143 37.1225ZM45.8157 34.2054C45.253 35.1977 45.0565 35.9521 44.8794 36.6356C44.7547 37.1168 44.6413 37.5472 44.4003 38.0597C43.9211 38.1578 43.3782 38.312 42.7422 38.556C41.0106 39.2206 40.2318 39.9203 39.5446 40.5373C38.9312 41.0884 38.4015 41.5641 37.0749 42.0734C36.9844 42.1081 36.8973 42.1401 36.8123 42.1702C37.5682 41.1526 38.134 40.7753 38.7831 40.3433C39.5523 39.8313 40.4241 39.251 41.5002 37.7392C42.5764 36.2274 42.8389 35.2134 43.0706 34.3189C43.2105 33.7791 43.3373 33.2891 43.6593 32.6707L45.8157 34.2054ZM21.2013 52.2542L20.2527 49.7834C20.9298 49.6266 21.4348 49.6262 21.9909 49.6256C22.9142 49.6246 23.9606 49.6235 25.6915 48.9591C27.4226 48.2946 28.2012 47.5951 28.8882 46.9781C29.5014 46.4273 30.0309 45.9516 31.357 45.4426C32.682 44.934 33.3934 44.9332 34.2171 44.9324C35.1403 44.9315 36.1864 44.9305 37.9168 44.2664C39.6485 43.6018 40.4272 42.9021 41.1144 42.2851C41.7278 41.734 42.2576 41.2583 43.5841 40.749C44.9119 40.2394 45.6245 40.2383 46.4496 40.2371C47.3735 40.2357 48.421 40.2341 50.1535 39.569C51.8859 38.904 52.6655 38.2043 53.353 37.5871C53.7678 37.2146 54.1444 36.8766 54.7547 36.5393L55.7032 39.0101C54.6859 39.526 54.1051 40.0457 53.5796 40.5176C52.9655 41.069 52.4353 41.545 51.1076 42.0544C49.78 42.5639 49.0673 42.5651 48.2422 42.5664C47.3181 42.5678 46.2707 42.5693 44.5383 43.2344C42.8066 43.899 42.0278 44.5986 41.3407 45.2157C40.7273 45.7666 40.1975 46.2424 38.8709 46.7516C37.546 47.2603 36.8345 47.2611 36.0108 47.2618C35.0877 47.2628 34.0416 47.2637 32.3111 47.9279C30.5801 48.5925 29.8016 49.2918 29.1146 49.9088C28.5015 50.4598 27.9719 50.9355 26.646 51.4445C25.3205 51.9532 24.6088 51.954 23.7848 51.9548C23.0794 51.9556 22.301 51.9575 21.2013 52.2542ZM40.8457 53.8562C41.0554 53.7892 41.2751 53.7126 41.5082 53.6232C43.2399 52.9586 44.0187 52.2589 44.7058 51.6419C45.3192 51.0909 45.849 50.6151 47.1756 50.1058C48.5034 49.5961 49.2159 49.5952 50.0412 49.5939C50.7536 49.593 51.5408 49.5905 52.6573 49.2853C49.8323 52.0377 45.7858 53.624 40.8457 53.8562ZM55.3751 45.1961C54.7611 45.7474 54.2308 46.2234 52.9032 46.733C51.5754 47.2427 50.8629 47.2437 50.0376 47.2449C49.1136 47.2463 48.0663 47.2479 46.3337 47.9128C44.602 48.5774 43.8232 49.2771 43.1361 49.8941C42.5227 50.4452 41.9929 50.9209 40.6664 51.4302C39.3414 51.9388 38.6299 51.9395 37.8062 51.9402C36.8831 51.9412 35.8368 51.9421 34.1064 52.6064C32.3755 53.2709 31.5969 53.9704 30.9099 54.5874C30.2968 55.1383 29.7673 55.6141 28.4414 56.123C27.116 56.6318 26.4044 56.6326 25.5803 56.6334C24.8747 56.6342 24.0969 56.6349 22.9966 56.932L22.0485 54.4623C22.7254 54.3057 23.2309 54.3046 23.7868 54.304C24.7101 54.303 25.7565 54.3019 27.4873 53.6376C29.2185 52.9732 29.9971 52.2737 30.6841 51.6567C31.2973 51.1057 31.8268 50.63 33.1526 50.121C34.4775 49.6124 35.189 49.6118 36.0127 49.611C36.9358 49.61 37.9821 49.6091 39.7124 48.9448C41.444 48.2802 42.2228 47.5807 42.91 46.9635C43.5234 46.4126 44.0531 45.9369 45.3797 45.4276C46.7075 44.9179 47.42 44.9168 48.2453 44.9155C49.1692 44.9141 50.2166 44.9125 51.949 44.2476C53.6815 43.5825 54.4609 42.8828 55.1485 42.2657C55.5632 41.8933 55.9406 41.5554 56.5504 41.2182L57.4985 43.6879C56.4802 44.2039 55.9008 44.724 55.3751 45.1961Z" fill="#DC3545"/>
<path d="M29.3029 28.6578C30.0369 28.6578 30.634 29.2549 30.634 29.9889C30.634 30.6377 31.1599 31.1634 31.8085 31.1634C32.4571 31.1634 32.983 30.6377 32.983 29.9889C32.983 27.9597 31.3321 26.3088 29.3029 26.3088C28.6543 26.3088 28.1284 26.8345 28.1284 27.4833C28.1284 28.1321 28.6543 28.6578 29.3029 28.6578Z" fill="#DC3545"/>
</g>
</g>
<defs>
<clipPath id="clip0_8004_3953">
<rect width="70.8917" height="70" fill="white" transform="translate(0.566895)"/>
</clipPath>
<clipPath id="clip1_8004_3953">
<rect width="70" height="70" fill="white" transform="translate(0.566895)"/>
</clipPath>
</defs>
</svg>
