<svg width="71" height="70" viewBox="0 0 71 70" fill="none" xmlns="http://www.w3.org/2000/svg">
<path d="M66.2867 0H43.1733C43.1637 0 43.1539 0.000136719 43.1443 0.000273438C35.3787 0.161602 28.9961 6.33883 28.4376 13.9897H26.9027C16.625 13.9897 8.1808 21.9867 7.46344 32.085H3.71324C2.94324 32.085 2.31885 32.7094 2.31885 33.4794V43.6674C2.31885 44.4374 2.94324 45.0618 3.71324 45.0618H55.2621C56.0321 45.0618 56.6565 44.4374 56.6565 43.6674V33.4794C56.6565 32.7094 56.0321 32.085 55.2621 32.085H51.512C50.7947 21.9868 42.3504 13.9897 32.0727 13.9897H31.2377C31.7886 7.85162 36.9354 2.92551 43.1883 2.78893H66.2867C67.0567 2.78893 67.6811 2.16453 67.6811 1.39453C67.6811 0.624395 67.0568 0 66.2867 0ZM53.8677 34.8738V42.273H5.10777V34.8738H53.8677ZM32.0727 16.7785C40.8126 16.7785 48.0056 23.5257 48.7161 32.085H10.2595C10.9701 23.5257 18.1632 16.7785 26.9027 16.7785H32.0727Z" fill="#DC3545"/>
<path d="M13.5213 47.4431C12.7513 47.4431 12.127 48.0675 12.127 48.8375V54.1596C12.127 54.9296 12.7513 55.554 13.5213 55.554C14.2913 55.554 14.9157 54.9296 14.9157 54.1596V48.8375C14.9157 48.0675 14.2913 47.4431 13.5213 47.4431Z" fill="#DC3545"/>
<path d="M13.5213 61.8889C12.7513 61.8889 12.127 62.5133 12.127 63.2833V68.6054C12.127 69.3754 12.7513 69.9998 13.5213 69.9998C14.2913 69.9998 14.9157 69.3754 14.9157 68.6054V63.2833C14.9157 62.5134 14.2913 61.8889 13.5213 61.8889Z" fill="#DC3545"/>
<path d="M24.1656 47.4431C23.3956 47.4431 22.7712 48.0675 22.7712 48.8375V54.1596C22.7712 54.9296 23.3956 55.554 24.1656 55.554C24.9356 55.554 25.56 54.9296 25.56 54.1596V48.8375C25.56 48.0675 24.9356 47.4431 24.1656 47.4431Z" fill="#DC3545"/>
<path d="M24.1656 61.8889C23.3956 61.8889 22.7712 62.5133 22.7712 63.2833V68.6054C22.7712 69.3754 23.3956 69.9998 24.1656 69.9998C24.9356 69.9998 25.56 69.3754 25.56 68.6054V63.2833C25.56 62.5134 24.9356 61.8889 24.1656 61.8889Z" fill="#DC3545"/>
<path d="M34.962 47.4431C34.192 47.4431 33.5676 48.0675 33.5676 48.8375V54.1596C33.5676 54.9296 34.192 55.554 34.962 55.554C35.732 55.554 36.3564 54.9296 36.3564 54.1596V48.8375C36.3564 48.0675 35.732 47.4431 34.962 47.4431Z" fill="#DC3545"/>
<path d="M34.962 61.8889C34.192 61.8889 33.5676 62.5133 33.5676 63.2833V68.6054C33.5676 69.3754 34.192 69.9998 34.962 69.9998C35.732 69.9998 36.3564 69.3754 36.3564 68.6054V63.2833C36.3564 62.5134 35.732 61.8889 34.962 61.8889Z" fill="#DC3545"/>
<path d="M45.7582 47.4431C44.9882 47.4431 44.3638 48.0675 44.3638 48.8375V54.1596C44.3638 54.9296 44.9882 55.554 45.7582 55.554C46.5282 55.554 47.1526 54.9296 47.1526 54.1596V48.8375C47.1526 48.0675 46.5283 47.4431 45.7582 47.4431Z" fill="#DC3545"/>
<path d="M45.7582 61.8889C44.9882 61.8889 44.3638 62.5133 44.3638 63.2833V68.6054C44.3638 69.3754 44.9882 69.9998 45.7582 69.9998C46.5282 69.9998 47.1526 69.3754 47.1526 68.6054V63.2833C47.1526 62.5134 46.5283 61.8889 45.7582 61.8889Z" fill="#DC3545"/>
</svg>
