<svg width="71" height="71" viewBox="0 0 71 71" fill="none" xmlns="http://www.w3.org/2000/svg">
<g clip-path="url(#clip0_8068_2723)">
<path d="M19.0022 56.5805C18.4523 56.5805 18.0857 56.9471 18.0857 57.497C18.0857 58.0469 18.4523 58.4135 19.0022 58.4135C19.5521 58.4135 19.9187 58.0469 19.9187 57.497C19.9187 56.9472 19.5521 56.5805 19.0022 56.5805Z" fill="#C8C8C8"/>
<path d="M15.3359 56.5805H13.5029C12.953 56.5805 12.5864 56.9471 12.5864 57.497C12.5864 58.0469 12.953 58.4135 13.5029 58.4135H15.3361C15.886 58.4135 16.2526 58.0469 16.2526 57.497C16.2526 56.9472 15.8859 56.5805 15.3359 56.5805Z" fill="#C8C8C8"/>
<path d="M24.5015 56.5805H22.6683C22.1184 56.5805 21.7518 56.9471 21.7518 57.497C21.7518 58.0469 22.1184 58.4135 22.6683 58.4135H24.5015C25.0514 58.4135 25.418 58.0469 25.418 57.497C25.418 56.9472 25.0514 56.5805 24.5015 56.5805Z" fill="#C8C8C8"/>
<path d="M51.9978 56.5805C51.4479 56.5805 51.0813 56.9471 51.0813 57.497C51.0813 58.0469 51.4479 58.4135 51.9978 58.4135C52.5477 58.4135 52.9143 58.0469 52.9143 57.497C52.9143 56.9472 52.5477 56.5805 51.9978 56.5805Z" fill="#C8C8C8"/>
<path d="M48.3315 56.5805H46.4984C45.9485 56.5805 45.5819 56.9471 45.5819 57.497C45.5819 58.0469 45.9485 58.4135 46.4984 58.4135H48.3315C48.8815 58.4135 49.248 58.0469 49.248 57.497C49.2482 56.9472 48.8815 56.5805 48.3315 56.5805Z" fill="#C8C8C8"/>
<path d="M57.4971 56.5805H55.6639C55.114 56.5805 54.7474 56.9471 54.7474 57.497C54.7474 58.0469 55.114 58.4135 55.6639 58.4135H57.4971C58.047 58.4135 58.4136 58.0469 58.4136 57.497C58.4136 56.9472 58.047 56.5805 57.4971 56.5805Z" fill="#C8C8C8"/>
<path d="M19.0022 30.0008C17.444 30.0008 16.2526 31.1923 16.2526 32.7504V37.3332C16.2526 37.8831 16.6191 38.2497 17.1691 38.2497H20.8352C21.3851 38.2497 21.7517 37.8831 21.7517 37.3332V32.7504C21.7518 31.1923 20.5602 30.0008 19.0022 30.0008ZM19.9187 36.4166H18.0856V32.7504C18.0856 32.2005 18.4522 31.8339 19.0021 31.8339C19.552 31.8339 19.9186 32.2005 19.9186 32.7504L19.9187 36.4166Z" fill="#C8C8C8"/>
<path d="M19.0022 40.9993C17.444 40.9993 16.2526 42.1908 16.2526 43.7489V48.3317C16.2526 48.8816 16.6191 49.2482 17.1691 49.2482H20.8352C21.3851 49.2482 21.7517 48.8816 21.7517 48.3317V43.7489C21.7518 42.1908 20.5602 40.9993 19.0022 40.9993ZM19.9187 47.4151H18.0856V43.7489C18.0856 43.199 18.4522 42.8324 19.0021 42.8324C19.552 42.8324 19.9186 43.199 19.9186 43.7489L19.9187 47.4151Z" fill="#C8C8C8"/>
<path d="M29.0841 44.6654H32.7502C33.3002 44.6654 33.6667 44.2989 33.6667 43.7489V40.0828C33.6667 38.5246 32.4753 37.3332 30.9171 37.3332C29.359 37.3332 28.1675 38.5246 28.1675 40.0828V43.7489C28.1676 44.2989 28.5342 44.6654 29.0841 44.6654ZM30.0007 40.0827C30.0007 39.5328 30.3673 39.1662 30.9172 39.1662C31.4671 39.1662 31.8337 39.5328 31.8337 40.0827V42.8323H30.0006V40.0827H30.0007Z" fill="#C8C8C8"/>
<path d="M38.2496 44.6654H41.9158C42.4657 44.6654 42.8323 44.2989 42.8323 43.7489V40.0828C42.8323 38.5246 41.6408 37.3332 40.0826 37.3332C38.5245 37.3332 37.333 38.5246 37.333 40.0828V43.7489C37.333 44.2989 37.6997 44.6654 38.2496 44.6654ZM39.1661 40.0827C39.1661 39.5328 39.5327 39.1662 40.0826 39.1662C40.6326 39.1662 40.9991 39.5328 40.9991 40.0827V42.8323H39.166V40.0827H39.1661Z" fill="#C8C8C8"/>
<path d="M62.7213 22.0269L52.9143 12.2198V8.92026C52.9143 8.37034 52.5477 8.00375 51.9978 8.00375C51.4479 8.00375 51.0813 8.37034 51.0813 8.92026V12.2198L41.2742 22.0269C40.9993 22.3018 40.9076 22.6684 41.0909 23.0351C41.1825 23.4017 41.5492 23.585 41.9158 23.585H42.8323V26.3347C42.8323 26.8846 43.1989 27.2512 43.7488 27.2512H44.6653V33.6669H42.8322V30.9173C42.8322 30.3674 42.4656 30.0008 41.9157 30.0008H38.2495C37.6996 30.0008 37.333 30.3674 37.333 30.9173V33.6669H33.6669V30.9173C33.6669 30.3674 33.3003 30.0008 32.7504 30.0008H29.0842C28.5343 30.0008 28.1677 30.3674 28.1677 30.9173V33.6669H26.3346V27.2512H27.2511C27.801 27.2512 28.1676 26.8846 28.1676 26.3347V23.585H29.0841C29.4507 23.585 29.8174 23.4017 29.909 23.0351C30.0924 22.6685 30.0006 22.3018 29.7257 22.0269L19.9186 12.2198V8.92026C19.9186 8.37034 19.552 8.00375 19.0021 8.00375C18.4522 8.00375 18.0856 8.37034 18.0856 8.92026V12.2198L8.27867 22.0269C8.00371 22.3018 7.91209 22.6684 8.09533 23.0351C8.18694 23.4017 8.55363 23.585 8.92021 23.585H9.83672V26.3347C9.83672 26.8846 10.2033 27.2512 10.7532 27.2512H11.6697V51.9978H10.7532C10.2949 51.9978 9.92834 52.3644 9.83672 52.8227L8.92021 61.9881C8.92021 62.2631 9.01183 62.538 9.19518 62.7214C9.2868 62.9047 9.56176 62.9963 9.83672 62.9963H28.1676H31.8338H39.1661H42.8323H61.1632C61.4381 62.9963 61.7131 62.9047 61.8047 62.7214C61.9881 62.538 62.0797 62.2631 62.0797 61.9881L61.1632 52.8227C61.0716 52.3644 60.7049 51.9978 60.2467 51.9978H59.3302V27.2512H60.2467C60.7966 27.2512 61.1632 26.8846 61.1632 26.3347V23.585H62.0797C62.4463 23.585 62.813 23.4017 62.9046 23.0351C63.0879 22.6684 62.9963 22.3018 62.7213 22.0269ZM51.9978 13.8696L59.8801 21.7519H44.1155L51.9978 13.8696ZM39.1661 31.8338H40.9993V33.6669H39.1661V31.8338ZM30.0007 31.8338H31.8339V33.6669H30.0007V31.8338ZM19.0022 13.8696L26.8845 21.7519H11.1199L19.0022 13.8696ZM26.3345 23.5849V25.418H25.418H12.5864H11.6698V23.5849H26.3345ZM13.503 49.2482H14.4195C14.9694 49.2482 15.336 48.8816 15.336 48.3317C15.336 47.7818 14.9694 47.4152 14.4195 47.4152H13.503V31.8338H14.4195C14.9694 31.8338 15.336 31.4672 15.336 30.9173C15.336 30.3674 14.9694 30.0008 14.4195 30.0008H13.503V27.2512H24.5015V34.5835V39.1663H23.585C23.0351 39.1663 22.6685 39.5329 22.6685 40.0828C22.6685 40.6327 23.0351 40.9993 23.585 40.9993H24.5015V51.9978H13.503V49.2482ZM11.5782 53.8308H12.5865H25.4181H26.4263L27.1515 61.1632H10.845L11.5782 53.8308ZM27.2511 51.9978H26.3346V35.5001H29.0842H32.7504H38.2496H41.9158H44.6654V51.9978H43.7489C43.2906 51.9978 42.924 52.3644 42.8324 52.8227L41.9984 61.1632H40.0828V51.0812C40.0828 48.5149 38.0664 46.4985 35.5 46.4985C32.9337 46.4985 30.9173 48.5148 30.9173 51.0812V61.1632H29.0016L28.1676 52.8227C28.076 52.3644 27.7093 51.9978 27.2511 51.9978ZM32.7504 61.1632V51.0812C32.7504 49.5231 33.9418 48.3316 35.5 48.3316C37.0582 48.3316 38.2496 49.5231 38.2496 51.0812V61.1632H32.7504ZM60.1549 61.1632H43.8486L44.5738 53.8308H45.582H58.4137H59.4219L60.1549 61.1632ZM57.497 39.1662H56.5805C56.0306 39.1662 55.664 39.5328 55.664 40.0827C55.664 40.6326 56.0306 40.9992 56.5805 40.9992H57.497V51.9977H46.4985V49.2481H47.415C47.965 49.2481 48.3315 48.8815 48.3315 48.3316C48.3315 47.7817 47.965 47.4151 47.415 47.4151H46.4985V34.5834V31.8338H47.415C47.965 31.8338 48.3315 31.4672 48.3315 30.9173C48.3315 30.3674 47.965 30.0008 47.415 30.0008H46.4985V27.2512H57.497V39.1662ZM59.3301 25.418H58.4135H45.5819H44.6654V23.5849H59.3301V25.418Z" fill="#C8C8C8"/>
<path d="M50.1647 38.2497H53.8308C54.3807 38.2497 54.7473 37.8831 54.7473 37.3332V32.7504C54.7473 31.1923 53.5558 30.0008 51.9977 30.0008C50.4395 30.0008 49.248 31.1923 49.248 32.7504V37.3332C49.2482 37.883 49.6147 38.2497 50.1647 38.2497ZM51.0812 32.7504C51.0812 32.2005 51.4478 31.8339 51.9977 31.8339C52.5476 31.8339 52.9142 32.2005 52.9142 32.7504V36.4166H51.0811V32.7504H51.0812Z" fill="#C8C8C8"/>
<path d="M50.1647 49.2482H53.8308C54.3807 49.2482 54.7473 48.8816 54.7473 48.3317V43.7489C54.7473 42.1908 53.5558 40.9993 51.9977 40.9993C50.4395 40.9993 49.248 42.1908 49.248 43.7489V48.3317C49.2482 48.8815 49.6147 49.2482 50.1647 49.2482ZM51.0812 43.7489C51.0812 43.199 51.4478 42.8324 51.9977 42.8324C52.5476 42.8324 52.9142 43.199 52.9142 43.7489V47.4151H51.0811V43.7489H51.0812Z" fill="#C8C8C8"/>
<path d="M35.5 51.9978C34.9501 51.9978 34.5835 52.3644 34.5835 52.9143V57.4971C34.5835 58.047 34.9501 58.4136 35.5 58.4136C36.0499 58.4136 36.4165 58.047 36.4165 57.4971V52.9143C36.4165 52.3644 36.0499 51.9978 35.5 51.9978Z" fill="#C8C8C8"/>
</g>
<defs>
<clipPath id="clip0_8068_2723">
<rect width="55" height="55" fill="white" transform="translate(8 8)"/>
</clipPath>
</defs>
</svg>
