<svg width="222" height="71" viewBox="0 0 222 71" fill="none" xmlns="http://www.w3.org/2000/svg">
<g clip-path="url(#clip0_6033_6144)">
<path d="M19.0022 56.5806C18.4523 56.5806 18.0857 56.9472 18.0857 57.4971C18.0857 58.047 18.4523 58.4136 19.0022 58.4136C19.5521 58.4136 19.9187 58.047 19.9187 57.4971C19.9187 56.9473 19.5521 56.5806 19.0022 56.5806Z" fill="#C8C8C8"/>
<path d="M15.3359 56.5806H13.5029C12.953 56.5806 12.5864 56.9472 12.5864 57.4971C12.5864 58.047 12.953 58.4136 13.5029 58.4136H15.3361C15.886 58.4136 16.2526 58.047 16.2526 57.4971C16.2526 56.9473 15.8859 56.5806 15.3359 56.5806Z" fill="#C8C8C8"/>
<path d="M24.5016 56.5806H22.6685C22.1185 56.5806 21.752 56.9472 21.752 57.4971C21.752 58.047 22.1185 58.4136 22.6685 58.4136H24.5016C25.0515 58.4136 25.4181 58.047 25.4181 57.4971C25.4181 56.9473 25.0515 56.5806 24.5016 56.5806Z" fill="#C8C8C8"/>
<path d="M51.9978 56.5806C51.4479 56.5806 51.0813 56.9472 51.0813 57.4971C51.0813 58.047 51.4479 58.4136 51.9978 58.4136C52.5477 58.4136 52.9143 58.047 52.9143 57.4971C52.9143 56.9473 52.5477 56.5806 51.9978 56.5806Z" fill="#C8C8C8"/>
<path d="M48.3314 56.5806H46.4983C45.9484 56.5806 45.5818 56.9472 45.5818 57.4971C45.5818 58.047 45.9484 58.4136 46.4983 58.4136H48.3314C48.8813 58.4136 49.2479 58.047 49.2479 57.4971C49.248 56.9473 48.8813 56.5806 48.3314 56.5806Z" fill="#C8C8C8"/>
<path d="M57.4969 56.5806H55.6638C55.1139 56.5806 54.7473 56.9472 54.7473 57.4971C54.7473 58.047 55.1139 58.4136 55.6638 58.4136H57.4969C58.0469 58.4136 58.4135 58.047 58.4135 57.4971C58.4135 56.9473 58.0469 56.5806 57.4969 56.5806Z" fill="#C8C8C8"/>
<path d="M19.0023 30.001C17.4442 30.001 16.2527 31.1924 16.2527 32.7506V37.3334C16.2527 37.8833 16.6193 38.2499 17.1692 38.2499H20.8353C21.3853 38.2499 21.7518 37.8833 21.7518 37.3334V32.7506C21.7519 31.1924 20.5604 30.001 19.0023 30.001ZM19.9188 36.4167H18.0857V32.7506C18.0857 32.2007 18.4523 31.8341 19.0022 31.8341C19.5521 31.8341 19.9187 32.2007 19.9187 32.7506L19.9188 36.4167Z" fill="#C8C8C8"/>
<path d="M19.0023 40.9995C17.4442 40.9995 16.2527 42.191 16.2527 43.7491V48.3319C16.2527 48.8818 16.6193 49.2484 17.1692 49.2484H20.8353C21.3853 49.2484 21.7518 48.8818 21.7518 48.3319V43.7491C21.7519 42.191 20.5604 40.9995 19.0023 40.9995ZM19.9188 47.4153H18.0857V43.7491C18.0857 43.1992 18.4523 42.8326 19.0022 42.8326C19.5521 42.8326 19.9187 43.1992 19.9187 43.7491L19.9188 47.4153Z" fill="#C8C8C8"/>
<path d="M29.0841 44.6658H32.7502C33.3002 44.6658 33.6667 44.2992 33.6667 43.7493V40.0831C33.6667 38.525 32.4753 37.3335 30.9171 37.3335C29.359 37.3335 28.1675 38.525 28.1675 40.0831V43.7493C28.1676 44.2992 28.5342 44.6658 29.0841 44.6658ZM30.0007 40.083C30.0007 39.5331 30.3673 39.1665 30.9172 39.1665C31.4671 39.1665 31.8337 39.5331 31.8337 40.083V42.8326H30.0006V40.083H30.0007Z" fill="#C8C8C8"/>
<path d="M38.2496 44.6658H41.9158C42.4657 44.6658 42.8323 44.2992 42.8323 43.7493V40.0831C42.8323 38.525 41.6408 37.3335 40.0826 37.3335C38.5245 37.3335 37.333 38.525 37.333 40.0831V43.7493C37.333 44.2992 37.6997 44.6658 38.2496 44.6658ZM39.1661 40.083C39.1661 39.5331 39.5327 39.1665 40.0826 39.1665C40.6326 39.1665 40.9991 39.5331 40.9991 40.083V42.8326H39.166V40.083H39.1661Z" fill="#C8C8C8"/>
<path d="M62.7213 22.027L52.9143 12.22V8.92041C52.9143 8.37049 52.5477 8.00391 51.9978 8.00391C51.4479 8.00391 51.0813 8.37049 51.0813 8.92041V12.22L41.2742 22.027C40.9993 22.302 40.9076 22.6686 41.0909 23.0353C41.1825 23.4018 41.5492 23.5852 41.9158 23.5852H42.8323V26.3348C42.8323 26.8847 43.1989 27.2513 43.7488 27.2513H44.6653V33.6671H42.8322V30.9175C42.8322 30.3675 42.4656 30.0009 41.9157 30.0009H38.2495C37.6996 30.0009 37.333 30.3675 37.333 30.9175V33.6671H33.6669V30.9175C33.6669 30.3675 33.3003 30.0009 32.7504 30.0009H29.0842C28.5343 30.0009 28.1677 30.3675 28.1677 30.9175V33.6671H26.3346V27.2513H27.2511C27.801 27.2513 28.1676 26.8847 28.1676 26.3348V23.5852H29.0841C29.4507 23.5852 29.8174 23.4018 29.909 23.0353C30.0924 22.6687 30.0006 22.302 29.7257 22.027L19.9186 12.22V8.92041C19.9186 8.37049 19.552 8.00391 19.0021 8.00391C18.4522 8.00391 18.0856 8.37049 18.0856 8.92041V12.22L8.27867 22.027C8.00371 22.302 7.91209 22.6686 8.09533 23.0353C8.18694 23.4018 8.55363 23.5852 8.92021 23.5852H9.83672V26.3348C9.83672 26.8847 10.2033 27.2513 10.7532 27.2513H11.6697V51.998H10.7532C10.2949 51.998 9.92834 52.3646 9.83672 52.8229L8.92021 61.9883C8.92021 62.2632 9.01183 62.5382 9.19518 62.7215C9.2868 62.9049 9.56176 62.9965 9.83672 62.9965H28.1676H31.8338H39.1661H42.8323H61.1632C61.4381 62.9965 61.7131 62.9049 61.8047 62.7215C61.9881 62.5382 62.0797 62.2632 62.0797 61.9883L61.1632 52.8229C61.0716 52.3646 60.7049 51.998 60.2467 51.998H59.3302V27.2513H60.2467C60.7966 27.2513 61.1632 26.8847 61.1632 26.3348V23.5852H62.0797C62.4463 23.5852 62.813 23.4018 62.9046 23.0353C63.0879 22.6686 62.9963 22.302 62.7213 22.027ZM51.9978 13.8697L59.8801 21.7521H44.1155L51.9978 13.8697ZM39.1661 31.834H40.9993V33.6671H39.1661V31.834ZM30.0007 31.834H31.8339V33.6671H30.0007V31.834ZM19.0022 13.8697L26.8845 21.7521H11.1199L19.0022 13.8697ZM26.3345 23.5851V25.4182H25.418H12.5864H11.6698V23.5851H26.3345ZM13.503 49.2484H14.4195C14.9694 49.2484 15.336 48.8818 15.336 48.3318C15.336 47.7819 14.9694 47.4153 14.4195 47.4153H13.503V31.834H14.4195C14.9694 31.834 15.336 31.4674 15.336 30.9175C15.336 30.3675 14.9694 30.0009 14.4195 30.0009H13.503V27.2513H24.5015V34.5837V39.1664H23.585C23.0351 39.1664 22.6685 39.533 22.6685 40.083C22.6685 40.6329 23.0351 40.9995 23.585 40.9995H24.5015V51.998H13.503V49.2484ZM11.5782 53.831H12.5865H25.4181H26.4263L27.1515 61.1634H10.845L11.5782 53.831ZM27.2511 51.998H26.3346V35.5002H29.0842H32.7504H38.2496H41.9158H44.6654V51.998H43.7489C43.2906 51.998 42.924 52.3646 42.8324 52.8229L41.9984 61.1634H40.0828V51.0814C40.0828 48.5151 38.0664 46.4986 35.5 46.4986C32.9337 46.4986 30.9172 48.515 30.9172 51.0814V61.1634H29.0016L28.1676 52.8229C28.076 52.3646 27.7093 51.998 27.2511 51.998ZM32.7504 61.1634V51.0814C32.7504 49.5232 33.9418 48.3317 35.5 48.3317C37.0582 48.3317 38.2496 49.5232 38.2496 51.0814V61.1634H32.7504ZM60.1549 61.1634H43.8486L44.5738 53.831H45.582H58.4137H59.4219L60.1549 61.1634ZM57.497 39.1663H56.5805C56.0306 39.1663 55.664 39.5329 55.664 40.0828C55.664 40.6328 56.0306 40.9994 56.5805 40.9994H57.497V51.9979H46.4985V49.2482H47.415C47.965 49.2482 48.3315 48.8817 48.3315 48.3317C48.3315 47.7818 47.965 47.4152 47.415 47.4152H46.4985V34.5836V31.834H47.415C47.965 31.834 48.3315 31.4674 48.3315 30.9175C48.3315 30.3675 47.965 30.0009 47.415 30.0009H46.4985V27.2513H57.497V39.1663ZM59.3301 25.4182H58.4135H45.5819H44.6654V23.5851H59.3301V25.4182Z" fill="#C8C8C8"/>
<path d="M50.1647 38.2499H53.8308C54.3807 38.2499 54.7473 37.8833 54.7473 37.3334V32.7506C54.7473 31.1924 53.5558 30.001 51.9977 30.001C50.4395 30.001 49.248 31.1924 49.248 32.7506V37.3334C49.2482 37.8832 49.6147 38.2499 50.1647 38.2499ZM51.0812 32.7506C51.0812 32.2007 51.4478 31.8341 51.9977 31.8341C52.5476 31.8341 52.9142 32.2007 52.9142 32.7506V36.4167H51.0811V32.7506H51.0812Z" fill="#C8C8C8"/>
<path d="M50.1647 49.2484H53.8308C54.3807 49.2484 54.7473 48.8818 54.7473 48.3319V43.7491C54.7473 42.191 53.5558 40.9995 51.9977 40.9995C50.4395 40.9995 49.248 42.191 49.248 43.7491V48.3319C49.2482 48.8817 49.6147 49.2484 50.1647 49.2484ZM51.0812 43.7491C51.0812 43.1992 51.4478 42.8326 51.9977 42.8326C52.5476 42.8326 52.9142 43.1992 52.9142 43.7491V47.4153H51.0811V43.7491H51.0812Z" fill="#C8C8C8"/>
<path d="M35.5 51.998C34.9501 51.998 34.5835 52.3646 34.5835 52.9146V57.4973C34.5835 58.0472 34.9501 58.4138 35.5 58.4138C36.0499 58.4138 36.4165 58.0472 36.4165 57.4973V52.9146C36.4165 52.3646 36.0499 51.998 35.5 51.998Z" fill="#C8C8C8"/>
</g>
<path d="M80.8227 29V28.2617L81.5258 28.127L83.4184 25.7949L81.5668 23.5391L80.9398 23.4043V22.6602H83.4242V23.4043L82.7914 23.4746L84.0922 25.0918L85.3578 23.4688L84.6781 23.4043V22.6602H87.1215V23.4043L86.477 23.5391L84.7602 25.7773L86.7348 28.127L87.391 28.2617V29H84.7016V28.2617L85.4633 28.1973L84.0746 26.5039L82.727 28.1973L83.4125 28.2617V29H80.8227ZM92.6129 29.123C92.027 29.123 91.5211 28.9863 91.0953 28.7129C90.6734 28.4355 90.3473 28.0547 90.1168 27.5703C89.8863 27.082 89.7711 26.5254 89.7711 25.9004V25.7715C89.7711 25.1465 89.8863 24.5918 90.1168 24.1074C90.3473 23.6191 90.6734 23.2363 91.0953 22.959C91.5211 22.6816 92.023 22.543 92.6012 22.543C93.1871 22.543 93.691 22.6816 94.1129 22.959C94.5387 23.2363 94.8668 23.6172 95.0973 24.1016C95.3277 24.5859 95.443 25.1426 95.443 25.7715V25.9004C95.443 26.5293 95.3277 27.0879 95.0973 27.5762C94.8668 28.0605 94.5406 28.4395 94.1187 28.7129C93.6969 28.9863 93.1949 29.123 92.6129 29.123ZM92.6129 28.2207C92.9801 28.2207 93.2867 28.1211 93.5328 27.9219C93.7828 27.7188 93.9703 27.4434 94.0953 27.0957C94.2242 26.7441 94.2887 26.3457 94.2887 25.9004V25.7715C94.2887 25.3262 94.2242 24.9297 94.0953 24.582C93.9703 24.2305 93.7828 23.9551 93.5328 23.7559C93.2828 23.5527 92.9723 23.4512 92.6012 23.4512C92.234 23.4512 91.9254 23.5527 91.6754 23.7559C91.4254 23.9551 91.2379 24.2305 91.1129 24.582C90.9879 24.9297 90.9254 25.3262 90.9254 25.7715V25.9004C90.9254 26.3457 90.9879 26.7441 91.1129 27.0957C91.2379 27.4434 91.4254 27.7188 91.6754 27.9219C91.9293 28.1211 92.2418 28.2207 92.6129 28.2207ZM101.362 29.123C100.788 29.123 100.288 28.9902 99.8621 28.7246C99.4363 28.4551 99.1063 28.082 98.8719 27.6055C98.6375 27.1289 98.5203 26.5781 98.5203 25.9531V25.707C98.5203 25.1055 98.6336 24.5664 98.8602 24.0898C99.0867 23.6133 99.4129 23.2363 99.8387 22.959C100.264 22.6816 100.772 22.543 101.362 22.543C101.874 22.543 102.321 22.627 102.704 22.7949C103.091 22.9629 103.415 23.1934 103.677 23.4863L103.706 25.0098H102.804L102.604 23.9023C102.471 23.7656 102.305 23.6562 102.106 23.5742C101.907 23.4922 101.673 23.4512 101.403 23.4512C101.059 23.4512 100.757 23.5527 100.495 23.7559C100.237 23.959 100.036 24.2305 99.8914 24.5703C99.7469 24.9102 99.6746 25.2891 99.6746 25.707V25.9531C99.6746 26.4141 99.741 26.8145 99.8738 27.1543C100.011 27.4941 100.204 27.7578 100.454 27.9453C100.708 28.1289 101.009 28.2207 101.356 28.2207C101.747 28.2207 102.071 28.1133 102.329 27.8984C102.587 27.6836 102.745 27.3887 102.804 27.0137H103.841L103.852 27.0488C103.833 27.4121 103.725 27.752 103.53 28.0684C103.335 28.3848 103.055 28.6406 102.692 28.8359C102.333 29.0273 101.889 29.123 101.362 29.123ZM108.031 29V28.2617L108.986 28.0977V23.5566H107.65L107.562 24.5469H106.578V22.6602H112.578V24.5469H111.588L111.5 23.5566H110.141V28.0977L111.096 28.2617V29H108.031ZM117.724 29.123C117.138 29.123 116.628 28.9902 116.195 28.7246C115.761 28.4551 115.425 28.082 115.187 27.6055C114.952 27.1289 114.835 26.5781 114.835 25.9531V25.6953C114.835 25.0938 114.958 24.5566 115.204 24.084C115.454 23.6074 115.784 23.2324 116.195 22.959C116.609 22.6816 117.06 22.543 117.548 22.543C118.118 22.543 118.595 22.6602 118.978 22.8945C119.364 23.1289 119.655 23.459 119.851 23.8848C120.046 24.3066 120.144 24.8047 120.144 25.3789V26.0996H116.03L116.013 26.1289C116.021 26.5352 116.091 26.8965 116.224 27.2129C116.361 27.5254 116.556 27.7715 116.81 27.9512C117.064 28.1309 117.368 28.2207 117.724 28.2207C118.114 28.2207 118.456 28.166 118.749 28.0566C119.046 27.9434 119.302 27.7891 119.517 27.5938L119.968 28.3438C119.741 28.5625 119.441 28.748 119.066 28.9004C118.695 29.0488 118.247 29.123 117.724 29.123ZM116.066 25.1973H118.989V25.0449C118.989 24.7402 118.935 24.4688 118.825 24.2305C118.72 23.9883 118.56 23.7988 118.345 23.6621C118.134 23.5215 117.868 23.4512 117.548 23.4512C117.29 23.4512 117.056 23.5273 116.845 23.6797C116.634 23.8281 116.46 24.0312 116.323 24.2891C116.187 24.5469 116.097 24.8398 116.054 25.168L116.066 25.1973ZM122.817 29L122.834 28.0156L123.075 28.0098C123.352 28.0098 123.571 27.9238 123.731 27.752C123.891 27.5762 124.006 27.2949 124.077 26.9082C124.147 26.5176 124.182 26.0039 124.182 25.3672V23.5684L123.227 23.4043V22.6602H128.641H129.596V23.4043L128.641 23.5684V28.0977L129.596 28.2617V29H126.532V28.2617L127.487 28.0977V23.5742H125.336V25.3672C125.336 26.6172 125.17 27.5352 124.838 28.1211C124.51 28.707 123.946 29 123.145 29H122.817Z" fill="#EBEBEB"/>
<path d="M73.5781 49.877L70.8828 46.0586V45.873L73.5781 42.0547H75.5117L73.207 45.9707L75.5117 49.877H73.5781ZM77.6113 49.877L74.916 46.0586V45.873L77.6113 42.0547H79.5449L77.2402 45.9707L79.5449 49.877H77.6113ZM80.9609 51V49.1543L82.4453 48.8516V38.9395L80.9609 38.6367V36.7812H91.8691V40.5215H89.5254L89.418 39.1738H85.5703V48.8516L87.0742 49.1543V51H80.9609ZM98.8613 51.2051C97.8913 51.2051 97.0026 51.026 96.1953 50.668C95.3945 50.3099 94.7012 49.8053 94.1152 49.1543C93.5293 48.5033 93.0768 47.7415 92.7578 46.8691C92.4453 45.9902 92.2891 45.0332 92.2891 43.998V43.7734C92.2891 42.7448 92.4453 41.7943 92.7578 40.9219C93.0768 40.0495 93.526 39.2878 94.1055 38.6367C94.6914 37.9857 95.3848 37.4811 96.1855 37.123C96.9928 36.7585 97.8815 36.5762 98.8516 36.5762C99.8151 36.5762 100.701 36.7585 101.508 37.123C102.315 37.4811 103.018 37.9857 103.617 38.6367C104.216 39.2878 104.678 40.0495 105.004 40.9219C105.329 41.7943 105.492 42.7448 105.492 43.7734V43.998C105.492 45.0332 105.329 45.9902 105.004 46.8691C104.678 47.7415 104.216 48.5033 103.617 49.1543C103.025 49.8053 102.325 50.3099 101.518 50.668C100.71 51.026 99.8249 51.2051 98.8613 51.2051ZM98.8613 48.8125C99.623 48.8125 100.264 48.6107 100.785 48.207C101.312 47.8034 101.71 47.2435 101.977 46.5273C102.243 45.8047 102.377 44.9616 102.377 43.998V43.7539C102.377 42.8099 102.24 41.9798 101.967 41.2637C101.7 40.5475 101.303 39.9876 100.775 39.584C100.255 39.1803 99.6133 38.9785 98.8516 38.9785C98.0703 38.9785 97.4258 39.1803 96.918 39.584C96.4102 39.9811 96.0326 40.5378 95.7852 41.2539C95.5378 41.9635 95.4141 42.7969 95.4141 43.7539V43.998C95.4141 44.9616 95.5378 45.8047 95.7852 46.5273C96.0391 47.25 96.4199 47.8132 96.9277 48.2168C97.4421 48.6139 98.0866 48.8125 98.8613 48.8125ZM106.293 51V49.1543L107.797 48.8516V38.9395L106.293 38.6367V36.7812H107.797H113.129C114.242 36.7812 115.202 36.9766 116.01 37.3672C116.824 37.7513 117.449 38.2917 117.885 38.9883C118.321 39.6784 118.539 40.4857 118.539 41.4102C118.539 42.3281 118.321 43.1322 117.885 43.8223C117.449 44.5124 116.824 45.0495 116.01 45.4336C115.202 45.8177 114.242 46.0098 113.129 46.0098H110.922V48.8516L112.416 49.1543V51H106.293ZM110.922 43.6074H113.129C113.884 43.6074 114.454 43.4023 114.838 42.9922C115.222 42.582 115.414 42.0612 115.414 41.4297C115.414 40.7721 115.222 40.2318 114.838 39.8086C114.454 39.3854 113.884 39.1738 113.129 39.1738H110.922V43.6074ZM125.99 51.2051C125.02 51.2051 124.132 51.026 123.324 50.668C122.523 50.3099 121.83 49.8053 121.244 49.1543C120.658 48.5033 120.206 47.7415 119.887 46.8691C119.574 45.9902 119.418 45.0332 119.418 43.998V43.7734C119.418 42.7448 119.574 41.7943 119.887 40.9219C120.206 40.0495 120.655 39.2878 121.234 38.6367C121.82 37.9857 122.514 37.4811 123.314 37.123C124.122 36.7585 125.01 36.5762 125.98 36.5762C126.944 36.5762 127.829 36.7585 128.637 37.123C129.444 37.4811 130.147 37.9857 130.746 38.6367C131.345 39.2878 131.807 40.0495 132.133 40.9219C132.458 41.7943 132.621 42.7448 132.621 43.7734V43.998C132.621 45.0332 132.458 45.9902 132.133 46.8691C131.807 47.7415 131.345 48.5033 130.746 49.1543C130.154 49.8053 129.454 50.3099 128.646 50.668C127.839 51.026 126.954 51.2051 125.99 51.2051ZM125.99 48.8125C126.752 48.8125 127.393 48.6107 127.914 48.207C128.441 47.8034 128.839 47.2435 129.105 46.5273C129.372 45.8047 129.506 44.9616 129.506 43.998V43.7539C129.506 42.8099 129.369 41.9798 129.096 41.2637C128.829 40.5475 128.432 39.9876 127.904 39.584C127.383 39.1803 126.742 38.9785 125.98 38.9785C125.199 38.9785 124.555 39.1803 124.047 39.584C123.539 39.9811 123.161 40.5378 122.914 41.2539C122.667 41.9635 122.543 42.7969 122.543 43.7539V43.998C122.543 44.9616 122.667 45.8047 122.914 46.5273C123.168 47.25 123.549 47.8132 124.057 48.2168C124.571 48.6139 125.215 48.8125 125.99 48.8125ZM133.188 54.4863L132.992 48.6172H134.047C134.392 48.3503 134.704 47.9792 134.984 47.5039C135.264 47.0286 135.495 46.3971 135.678 45.6094C135.86 44.8216 135.974 43.8255 136.02 42.6211L136.293 38.9199L134.945 38.6367V36.7812H147.387V38.6367L145.902 38.9395V48.6172H147.504L147.211 54.5059H144.379V51H136.107V54.4863H133.188ZM137.611 48.6172H142.777V39.1738H139.389L139.164 42.6211C139.125 43.5521 139.037 44.3854 138.9 45.1211C138.764 45.8568 138.588 46.5111 138.373 47.084C138.158 47.6504 137.904 48.1615 137.611 48.6172ZM155.121 51.2051C153.754 51.2051 152.549 50.9251 151.508 50.3652C150.466 49.7988 149.656 48.9915 149.076 47.9434C148.497 46.8952 148.207 45.6387 148.207 44.1738V43.6172C148.207 42.2435 148.48 41.0293 149.027 39.9746C149.574 38.9134 150.352 38.0833 151.361 37.4844C152.377 36.8789 153.581 36.5762 154.975 36.5762C155.951 36.5762 156.872 36.7096 157.738 36.9766C158.611 37.2435 159.402 37.6764 160.111 38.2754V41.8203H157.816L157.504 39.6914C157.283 39.5417 157.048 39.4115 156.801 39.3008C156.553 39.1901 156.286 39.1055 156 39.0469C155.714 38.9883 155.404 38.959 155.072 38.959C154.304 38.959 153.64 39.1445 153.08 39.5156C152.52 39.8867 152.087 40.4173 151.781 41.1074C151.475 41.7975 151.322 42.6276 151.322 43.5977V44.1738C151.322 45.1113 151.479 45.9316 151.791 46.6348C152.11 47.3314 152.559 47.8717 153.139 48.2559C153.718 48.64 154.392 48.832 155.16 48.832C155.564 48.832 155.967 48.7897 156.371 48.7051C156.775 48.6139 157.152 48.4967 157.504 48.3535L157.826 46.3516H160.121V49.8281C159.561 50.2057 158.855 50.5312 158.002 50.8047C157.156 51.0716 156.195 51.2051 155.121 51.2051ZM161.332 51V49.1543L162.816 48.8516V38.9395L161.332 38.6367V36.7812H167.338V38.6367L165.941 38.9395V42.416H167.143L169.652 38.8125C170.232 37.9987 170.775 37.4323 171.283 37.1133C171.791 36.7943 172.351 36.6348 172.963 36.6348C173.34 36.6348 173.686 36.6836 173.998 36.7812C174.317 36.8724 174.597 36.9961 174.838 37.1523L174.301 39.5254C174.171 39.4863 174.053 39.457 173.949 39.4375C173.845 39.418 173.738 39.4082 173.627 39.4082C173.36 39.4082 173.08 39.4928 172.787 39.6621C172.501 39.8249 172.169 40.1536 171.791 40.6484L169.809 43.334L173.51 48.9102L175.043 49.1543V51H169.135V49.1543L169.867 49.0371L169.848 49.0176L167.562 45.2969H165.941V48.8516L167.338 49.1543V51H161.332ZM181.459 51.2051C180.489 51.2051 179.6 51.026 178.793 50.668C177.992 50.3099 177.299 49.8053 176.713 49.1543C176.127 48.5033 175.674 47.7415 175.355 46.8691C175.043 45.9902 174.887 45.0332 174.887 43.998V43.7734C174.887 42.7448 175.043 41.7943 175.355 40.9219C175.674 40.0495 176.124 39.2878 176.703 38.6367C177.289 37.9857 177.982 37.4811 178.783 37.123C179.59 36.7585 180.479 36.5762 181.449 36.5762C182.413 36.5762 183.298 36.7585 184.105 37.123C184.913 37.4811 185.616 37.9857 186.215 38.6367C186.814 39.2878 187.276 40.0495 187.602 40.9219C187.927 41.7943 188.09 42.7448 188.09 43.7734V43.998C188.09 45.0332 187.927 45.9902 187.602 46.8691C187.276 47.7415 186.814 48.5033 186.215 49.1543C185.622 49.8053 184.923 50.3099 184.115 50.668C183.308 51.026 182.423 51.2051 181.459 51.2051ZM181.459 48.8125C182.221 48.8125 182.862 48.6107 183.383 48.207C183.91 47.8034 184.307 47.2435 184.574 46.5273C184.841 45.8047 184.975 44.9616 184.975 43.998V43.7539C184.975 42.8099 184.838 41.9798 184.564 41.2637C184.298 40.5475 183.9 39.9876 183.373 39.584C182.852 39.1803 182.211 38.9785 181.449 38.9785C180.668 38.9785 180.023 39.1803 179.516 39.584C179.008 39.9811 178.63 40.5378 178.383 41.2539C178.135 41.9635 178.012 42.7969 178.012 43.7539V43.998C178.012 44.9616 178.135 45.8047 178.383 46.5273C178.637 47.25 179.018 47.8132 179.525 48.2168C180.04 48.6139 180.684 48.8125 181.459 48.8125ZM189.076 51V49.1543L190.58 48.8516V38.9395L189.076 38.6367V36.7812H190.58H193.686H195.189V38.6367L193.686 38.9395V45.043L193.744 45.0625L199.154 39.7012V38.9395L197.66 38.6367V36.7812H199.154H202.299H203.783V38.6367L202.299 38.9395V48.8516L203.783 49.1543V51H197.66V49.1543L199.154 48.8516V42.8652L199.096 42.8457L193.686 48.2266V48.8516L195.189 49.1543V51H189.076ZM196.439 35.9707C195.359 35.9707 194.496 35.7038 193.852 35.1699C193.207 34.6361 192.904 33.9492 192.943 33.1094L192.963 33.0508H195.033C195.033 33.4023 195.144 33.6953 195.365 33.9297C195.593 34.1641 195.951 34.2812 196.439 34.2812C196.915 34.2812 197.263 34.1673 197.484 33.9395C197.706 33.7116 197.816 33.4154 197.816 33.0508H199.906L199.926 33.1094C199.945 33.9492 199.639 34.6361 199.008 35.1699C198.376 35.7038 197.52 35.9707 196.439 35.9707ZM204.691 49.5352L206.977 45.6289L204.691 41.7129H206.625L209.311 45.5312V45.7168L206.625 49.5352H204.691ZM208.842 49.5352L211.127 45.6289L208.842 41.7129H210.775L213.461 45.5312V45.7168L210.775 49.5352H208.842Z" fill="#EBEBEB"/>
<defs>
<clipPath id="clip0_6033_6144">
<rect width="55" height="55" fill="white" transform="translate(8 8)"/>
</clipPath>
</defs>
</svg>
