<svg width="512" height="512" viewBox="0 0 512 512" fill="none" xmlns="http://www.w3.org/2000/svg">
<mask id="mask0_8100_1655" style="mask-type:luminance" maskUnits="userSpaceOnUse" x="57" y="57" width="398" height="398">
<path d="M454.31 57.6901H57.6901V454.31H454.31V57.6901Z" fill="white"/>
</mask>
<g mask="url(#mask0_8100_1655)">
<path d="M137.031 408.017C133.065 408.017 130.422 410.661 130.422 414.626C130.422 418.592 133.065 421.235 137.031 421.235C140.996 421.235 143.64 418.592 143.64 414.626C143.64 410.661 140.996 408.017 137.031 408.017Z" fill="#DC3545"/>
<path d="M110.592 408.017H97.3737C93.4083 408.017 90.7646 410.661 90.7646 414.626C90.7646 418.592 93.4083 421.235 97.3737 421.235H110.593C114.559 421.235 117.203 418.592 117.203 414.626C117.203 410.661 114.558 408.017 110.592 408.017Z" fill="#DC3545"/>
<path d="M176.688 408.017H163.468C159.502 408.017 156.859 410.661 156.859 414.626C156.859 418.592 159.502 421.235 163.468 421.235H176.688C180.653 421.235 183.297 418.592 183.297 414.626C183.297 410.661 180.653 408.017 176.688 408.017Z" fill="#DC3545"/>
<path d="M374.97 408.017C371.005 408.017 368.361 410.661 368.361 414.626C368.361 418.592 371.005 421.235 374.97 421.235C378.936 421.235 381.579 418.592 381.579 414.626C381.579 410.661 378.936 408.017 374.97 408.017Z" fill="#DC3545"/>
<path d="M348.532 408.017H335.313C331.348 408.017 328.704 410.661 328.704 414.626C328.704 418.592 331.348 421.235 335.313 421.235H348.532C352.498 421.235 355.141 418.592 355.141 414.626C355.142 410.661 352.498 408.017 348.532 408.017Z" fill="#DC3545"/>
<path d="M414.627 408.017H401.408C397.443 408.017 394.799 410.661 394.799 414.626C394.799 418.592 397.443 421.235 401.408 421.235H414.627C418.592 421.235 421.236 418.592 421.236 414.626C421.236 410.661 418.592 408.017 414.627 408.017Z" fill="#DC3545"/>
<path d="M137.031 216.344C125.794 216.344 117.203 224.936 117.203 236.172V269.22C117.203 273.185 119.846 275.829 123.812 275.829H150.249C154.214 275.829 156.858 273.185 156.858 269.22V236.172C156.859 224.936 148.266 216.344 137.031 216.344ZM143.64 262.61H130.421V236.172C130.421 232.206 133.064 229.563 137.03 229.563C140.995 229.563 143.639 232.206 143.639 236.172L143.64 262.61Z" fill="#DC3545"/>
<path d="M137.031 295.657C125.794 295.657 117.203 304.249 117.203 315.485V348.533C117.203 352.498 119.846 355.142 123.812 355.142H150.249C154.214 355.142 156.858 352.498 156.858 348.533V315.485C156.859 304.249 148.266 295.657 137.031 295.657ZM143.64 341.923H130.421V315.485C130.421 311.52 133.064 308.876 137.03 308.876C140.995 308.876 143.639 311.52 143.639 315.485L143.64 341.923Z" fill="#DC3545"/>
<path d="M209.734 322.095H236.171C240.137 322.095 242.78 319.451 242.78 315.485V289.048C242.78 277.811 234.189 269.22 222.952 269.22C211.716 269.22 203.124 277.811 203.124 289.048V315.485C203.125 319.451 205.768 322.095 209.734 322.095ZM216.344 289.047C216.344 285.082 218.987 282.438 222.953 282.438C226.918 282.438 229.562 285.082 229.562 289.047V308.875H216.343L216.344 289.047Z" fill="#DC3545"/>
<path d="M275.829 322.095H302.266C306.232 322.095 308.875 319.451 308.875 315.485V289.048C308.875 277.811 300.284 269.22 289.047 269.22C277.81 269.22 269.219 277.811 269.219 289.048V315.485C269.219 319.451 271.863 322.095 275.829 322.095ZM282.438 289.047C282.438 285.082 285.082 282.438 289.047 282.438C293.013 282.438 295.656 285.082 295.656 289.047V308.875H282.437L282.438 289.047Z" fill="#DC3545"/>
<path d="M452.301 158.842L381.579 88.1201V64.3262C381.579 60.3606 378.936 57.717 374.97 57.717C371.004 57.717 368.361 60.3606 368.361 64.3262V88.1201L297.64 158.842C295.657 160.824 294.996 163.468 296.317 166.112C296.979 168.756 299.622 170.078 302.266 170.078H308.875V189.906C308.875 193.872 311.519 196.516 315.484 196.516H322.094V242.781H308.874V222.953C308.874 218.987 306.231 216.344 302.265 216.344H275.828C271.862 216.344 269.219 218.987 269.219 222.953V242.781H242.781V222.953C242.781 218.987 240.138 216.344 236.172 216.344H209.734C205.769 216.344 203.125 218.987 203.125 222.953V242.781H189.906V196.516H196.515C200.481 196.516 203.125 193.872 203.125 189.906V170.078H209.734C212.377 170.078 215.022 168.756 215.682 166.112C217.004 163.468 216.343 160.824 214.36 158.842L143.639 88.1201V64.3262C143.639 60.3606 140.995 57.717 137.03 57.717C133.064 57.717 130.421 60.3606 130.421 64.3262V88.1201L59.6999 158.842C57.7171 160.824 57.0564 163.468 58.3778 166.112C59.0385 168.756 61.6827 170.078 64.3263 170.078H70.9354V189.906C70.9354 193.872 73.5792 196.516 77.5447 196.516H84.1538V374.97H77.5447C74.2398 374.97 71.5961 377.614 70.9354 380.919L64.3263 447.013C64.3263 448.996 64.9869 450.978 66.3091 452.301C66.9698 453.623 68.9526 454.283 70.9354 454.283H203.125H229.562H282.438H308.875H441.064C443.047 454.283 445.03 453.623 445.691 452.301C447.013 450.978 447.673 448.996 447.673 447.013L441.064 380.919C440.403 377.614 437.759 374.97 434.455 374.97H427.846V196.516H434.455C438.421 196.516 441.064 193.872 441.064 189.906V170.078H447.673C450.317 170.078 452.961 168.756 453.622 166.112C454.944 163.468 454.284 160.824 452.301 158.842ZM374.97 100.017L431.811 156.859H318.128L374.97 100.017ZM282.438 229.562H295.657V242.781H282.438V229.562ZM216.344 229.562H229.563V242.781H216.344V229.562ZM137.03 100.017L193.872 156.859H80.1891L137.03 100.017ZM189.906 170.077V183.296H183.296H90.7637H84.1545V170.077H189.906ZM97.3735 355.142H103.983C107.949 355.142 110.592 352.498 110.592 348.533C110.592 344.567 107.949 341.924 103.983 341.924H97.3735V229.562H103.983C107.949 229.562 110.592 226.918 110.592 222.953C110.592 218.987 107.949 216.344 103.983 216.344H97.3735V196.516H176.687V249.391V282.439H170.078C166.112 282.439 163.468 285.082 163.468 289.048C163.468 293.013 166.112 295.657 170.078 295.657H176.687V374.97H97.3735V355.142ZM83.494 388.188H90.7644H183.297H190.568L195.797 441.064H78.206L83.494 388.188ZM196.515 374.97H189.906V256.001H209.734H236.172H275.829H302.266H322.095V374.97H315.486C312.18 374.97 309.537 377.614 308.876 380.919L302.861 441.064H289.048V368.36C289.048 349.854 274.507 335.313 256 335.313C237.494 335.313 222.953 349.853 222.953 368.36V441.064H209.139L203.125 380.919C202.464 377.614 199.82 374.97 196.515 374.97ZM236.172 441.064V368.36C236.172 357.124 244.764 348.532 256 348.532C267.236 348.532 275.829 357.124 275.829 368.36V441.064H236.172ZM433.794 441.064H316.204L321.433 388.188H328.704H421.237H428.507L433.794 441.064ZM414.627 282.438H408.018C404.052 282.438 401.408 285.081 401.408 289.047C401.408 293.012 404.052 295.656 408.018 295.656H414.627V374.969H335.314V355.141H341.923C345.888 355.141 348.532 352.497 348.532 348.532C348.532 344.566 345.888 341.923 341.923 341.923H335.314V249.39V229.562H341.923C345.888 229.562 348.532 226.918 348.532 222.953C348.532 218.987 345.888 216.344 341.923 216.344H335.314V196.516H414.627V282.438ZM427.845 183.296H421.236H328.704H322.095V170.077H427.845V183.296Z" fill="#DC3545"/>
<path d="M361.751 275.829H388.189C392.154 275.829 394.798 273.185 394.798 269.22V236.172C394.798 224.936 386.206 216.344 374.969 216.344C363.733 216.344 355.141 224.936 355.141 236.172V269.22C355.142 273.184 357.786 275.829 361.751 275.829ZM368.36 236.172C368.36 232.206 371.004 229.563 374.969 229.563C378.936 229.563 381.578 232.206 381.578 236.172V262.61H368.359L368.36 236.172Z" fill="#DC3545"/>
<path d="M361.751 355.142H388.189C392.154 355.142 394.798 352.498 394.798 348.533V315.485C394.798 304.249 386.206 295.657 374.969 295.657C363.733 295.657 355.141 304.249 355.141 315.485V348.533C355.142 352.498 357.786 355.142 361.751 355.142ZM368.36 315.485C368.36 311.52 371.004 308.876 374.969 308.876C378.936 308.876 381.578 311.52 381.578 315.485V341.923H368.359L368.36 315.485Z" fill="#DC3545"/>
<path d="M256.001 374.97C252.035 374.97 249.392 377.614 249.392 381.579V414.627C249.392 418.592 252.035 421.236 256.001 421.236C259.966 421.236 262.61 418.592 262.61 414.627V381.579C262.61 377.614 259.966 374.97 256.001 374.97Z" fill="#DC3545"/>
</g>
</svg>
